<?xml version="1.0" encoding="UTF-8" standalone="no"?>
<!DOCTYPE svg PUBLIC "-//W3C//DTD SVG 1.1//EN"
 "http://www.w3.org/Graphics/SVG/1.1/DTD/svg11.dtd">
<!-- Generated by graphviz version 2.43.0 (0)
 -->
<!-- Title: snakemake_dag Pages: 1 -->
<svg width="160pt" height="188pt"
 viewBox="0.00 0.00 160.00 188.00" xmlns="http://www.w3.org/2000/svg" xmlns:xlink="http://www.w3.org/1999/xlink">
<g id="graph0" class="graph" transform="scale(1 1) rotate(0) translate(4 184)">
<title>snakemake_dag</title>
<polygon fill="white" stroke="transparent" points="-4,4 -4,-184 156,-184 156,4 -4,4"/>
<!-- 0 -->
<g id="node1" class="node">
<title>0</title>
<path fill="none" stroke="#d85656" stroke-width="2" d="M87,-36C87,-36 57,-36 57,-36 51,-36 45,-30 45,-24 45,-24 45,-12 45,-12 45,-6 51,0 57,0 57,0 87,0 87,0 93,0 99,-6 99,-12 99,-12 99,-24 99,-24 99,-30 93,-36 87,-36"/>
<text text-anchor="middle" x="72" y="-15.5" font-family="sans" font-size="10.00">all</text>
</g>
<!-- 1 -->
<g id="node2" class="node">
<title>1</title>
<path fill="none" stroke="#59d856" stroke-width="2" d="M48,-108C48,-108 12,-108 12,-108 6,-108 0,-102 0,-96 0,-96 0,-84 0,-84 0,-78 6,-72 12,-72 12,-72 48,-72 48,-72 54,-72 60,-78 60,-84 60,-84 60,-96 60,-96 60,-102 54,-108 48,-108"/>
<text text-anchor="middle" x="30" y="-87.5" font-family="sans" font-size="10.00">calc_stat</text>
</g>
<!-- 1&#45;&gt;0 -->
<g id="edge1" class="edge">
<title>1&#45;&gt;0</title>
<path fill="none" stroke="grey" stroke-width="2" d="M40.38,-71.7C45.26,-63.56 51.19,-53.69 56.58,-44.7"/>
<polygon fill="grey" stroke="grey" stroke-width="2" points="59.59,-46.48 61.74,-36.1 53.59,-42.88 59.59,-46.48"/>
</g>
<!-- 2 -->
<g id="node3" class="node">
<title>2</title>
<path fill="none" stroke="#56d8d8" stroke-width="2" d="M140,-108C140,-108 90,-108 90,-108 84,-108 78,-102 78,-96 78,-96 78,-84 78,-84 78,-78 84,-72 90,-72 90,-72 140,-72 140,-72 146,-72 152,-78 152,-84 152,-84 152,-96 152,-96 152,-102 146,-108 140,-108"/>
<text text-anchor="middle" x="115" y="-87.5" font-family="sans" font-size="10.00">plot_graphs</text>
</g>
<!-- 2&#45;&gt;0 -->
<g id="edge2" class="edge">
<title>2&#45;&gt;0</title>
<path fill="none" stroke="grey" stroke-width="2" d="M104.37,-71.7C99.37,-63.56 93.31,-53.69 87.79,-44.7"/>
<polygon fill="grey" stroke="grey" stroke-width="2" points="90.72,-42.79 82.51,-36.1 84.76,-46.46 90.72,-42.79"/>
</g>
<!-- 3 -->
<g id="node4" class="node">
<title>3</title>
<path fill="none" stroke="#d6d856" stroke-width="2" d="M92.5,-180C92.5,-180 51.5,-180 51.5,-180 45.5,-180 39.5,-174 39.5,-168 39.5,-168 39.5,-156 39.5,-156 39.5,-150 45.5,-144 51.5,-144 51.5,-144 92.5,-144 92.5,-144 98.5,-144 104.5,-150 104.5,-156 104.5,-156 104.5,-168 104.5,-168 104.5,-174 98.5,-180 92.5,-180"/>
<text text-anchor="middle" x="72" y="-159.5" font-family="sans" font-size="10.00">load_data</text>
</g>
<!-- 3&#45;&gt;1 -->
<g id="edge3" class="edge">
<title>3&#45;&gt;1</title>
<path fill="none" stroke="grey" stroke-width="2" d="M61.62,-143.7C56.74,-135.56 50.81,-125.69 45.42,-116.7"/>
<polygon fill="grey" stroke="grey" stroke-width="2" points="48.41,-114.88 40.26,-108.1 42.41,-118.48 48.41,-114.88"/>
</g>
<!-- 3&#45;&gt;2 -->
<g id="edge4" class="edge">
<title>3&#45;&gt;2</title>
<path fill="none" stroke="grey" stroke-width="2" d="M82.63,-143.7C87.63,-135.56 93.69,-125.69 99.21,-116.7"/>
<polygon fill="grey" stroke="grey" stroke-width="2" points="102.24,-118.46 104.49,-108.1 96.28,-114.79 102.24,-118.46"/>
</g>
</g>
</svg>
