<?xml version="1.0" encoding="UTF-8" standalone="no"?>
<!DOCTYPE svg PUBLIC "-//W3C//DTD SVG 1.1//EN"
 "http://www.w3.org/Graphics/SVG/1.1/DTD/svg11.dtd">
<!-- Generated by graphviz version 2.43.0 (0)
 -->
<!-- Title: snakemake_dag Pages: 1 -->
<svg width="1774pt" height="409pt"
 viewBox="0.00 0.00 1773.91 409.00" xmlns="http://www.w3.org/2000/svg" xmlns:xlink="http://www.w3.org/1999/xlink">
<g id="graph0" class="graph" transform="scale(1 1) rotate(0) translate(4 405)">
<title>snakemake_dag</title>
<polygon fill="white" stroke="transparent" points="-4,4 -4,-405 1769.91,-405 1769.91,4 -4,4"/>
<!-- 0 -->
<g id="node1" class="node">
<title>0</title>
<path fill="none" stroke="#56d89a" stroke-width="2" d="M914.91,-36C914.91,-36 884.91,-36 884.91,-36 878.91,-36 872.91,-30 872.91,-24 872.91,-24 872.91,-12 872.91,-12 872.91,-6 878.91,0 884.91,0 884.91,0 914.91,0 914.91,0 920.91,0 926.91,-6 926.91,-12 926.91,-12 926.91,-24 926.91,-24 926.91,-30 920.91,-36 914.91,-36"/>
<text text-anchor="middle" x="899.91" y="-15.5" font-family="sans" font-size="10.00">all</text>
</g>
<!-- 1 -->
<g id="node2" class="node">
<title>1</title>
<path fill="none" stroke="#569ad8" stroke-width="2" d="M72.91,-252C72.91,-252 42.91,-252 42.91,-252 36.91,-252 30.91,-246 30.91,-240 30.91,-240 30.91,-228 30.91,-228 30.91,-222 36.91,-216 42.91,-216 42.91,-216 72.91,-216 72.91,-216 78.91,-216 84.91,-222 84.91,-228 84.91,-228 84.91,-240 84.91,-240 84.91,-246 78.91,-252 72.91,-252"/>
<text text-anchor="middle" x="57.91" y="-231.5" font-family="sans" font-size="10.00">gsea</text>
</g>
<!-- 1&#45;&gt;0 -->
<g id="edge1" class="edge">
<title>1&#45;&gt;0</title>
<path fill="none" stroke="grey" stroke-width="2" d="M59.56,-215.78C63.83,-181.77 78.55,-106.32 126.91,-72 187.31,-29.14 715.91,-20.8 862.41,-19.3"/>
<polygon fill="grey" stroke="grey" stroke-width="2" points="862.71,-22.8 872.68,-19.2 862.64,-15.8 862.71,-22.8"/>
</g>
<!-- 2 -->
<g id="node3" class="node">
<title>2</title>
<path fill="none" stroke="#569ad8" stroke-width="2" d="M252.91,-252C252.91,-252 222.91,-252 222.91,-252 216.91,-252 210.91,-246 210.91,-240 210.91,-240 210.91,-228 210.91,-228 210.91,-222 216.91,-216 222.91,-216 222.91,-216 252.91,-216 252.91,-216 258.91,-216 264.91,-222 264.91,-228 264.91,-228 264.91,-240 264.91,-240 264.91,-246 258.91,-252 252.91,-252"/>
<text text-anchor="middle" x="237.91" y="-231.5" font-family="sans" font-size="10.00">gsea</text>
</g>
<!-- 2&#45;&gt;0 -->
<g id="edge2" class="edge">
<title>2&#45;&gt;0</title>
<path fill="none" stroke="grey" stroke-width="2" d="M240.39,-215.81C246.27,-181.87 264.51,-106.53 313.91,-72 358.82,-40.62 739.97,-24.61 862.29,-20.25"/>
<polygon fill="grey" stroke="grey" stroke-width="2" points="862.77,-23.74 872.64,-19.89 862.52,-16.74 862.77,-23.74"/>
</g>
<!-- 3 -->
<g id="node4" class="node">
<title>3</title>
<path fill="none" stroke="#569ad8" stroke-width="2" d="M431.91,-252C431.91,-252 401.91,-252 401.91,-252 395.91,-252 389.91,-246 389.91,-240 389.91,-240 389.91,-228 389.91,-228 389.91,-222 395.91,-216 401.91,-216 401.91,-216 431.91,-216 431.91,-216 437.91,-216 443.91,-222 443.91,-228 443.91,-228 443.91,-240 443.91,-240 443.91,-246 437.91,-252 431.91,-252"/>
<text text-anchor="middle" x="416.91" y="-231.5" font-family="sans" font-size="10.00">gsea</text>
</g>
<!-- 3&#45;&gt;0 -->
<g id="edge3" class="edge">
<title>3&#45;&gt;0</title>
<path fill="none" stroke="grey" stroke-width="2" d="M414.73,-215.82C411.56,-182.56 409.99,-109.37 450.91,-72 481.14,-44.39 760.27,-26.58 862.57,-20.94"/>
<polygon fill="grey" stroke="grey" stroke-width="2" points="862.95,-24.42 872.74,-20.38 862.57,-17.43 862.95,-24.42"/>
</g>
<!-- 4 -->
<g id="node5" class="node">
<title>4</title>
<path fill="none" stroke="#569ad8" stroke-width="2" d="M602.91,-252C602.91,-252 572.91,-252 572.91,-252 566.91,-252 560.91,-246 560.91,-240 560.91,-240 560.91,-228 560.91,-228 560.91,-222 566.91,-216 572.91,-216 572.91,-216 602.91,-216 602.91,-216 608.91,-216 614.91,-222 614.91,-228 614.91,-228 614.91,-240 614.91,-240 614.91,-246 608.91,-252 602.91,-252"/>
<text text-anchor="middle" x="587.91" y="-231.5" font-family="sans" font-size="10.00">gsea</text>
</g>
<!-- 4&#45;&gt;0 -->
<g id="edge4" class="edge">
<title>4&#45;&gt;0</title>
<path fill="none" stroke="grey" stroke-width="2" d="M587.28,-215.98C587.06,-182.99 591.6,-110.26 632.91,-72 665.84,-41.5 796.87,-27.09 862.32,-21.67"/>
<polygon fill="grey" stroke="grey" stroke-width="2" points="862.92,-25.14 872.61,-20.85 862.36,-18.16 862.92,-25.14"/>
</g>
<!-- 5 -->
<g id="node6" class="node">
<title>5</title>
<path fill="none" stroke="#569ad8" stroke-width="2" d="M758.91,-252C758.91,-252 728.91,-252 728.91,-252 722.91,-252 716.91,-246 716.91,-240 716.91,-240 716.91,-228 716.91,-228 716.91,-222 722.91,-216 728.91,-216 728.91,-216 758.91,-216 758.91,-216 764.91,-216 770.91,-222 770.91,-228 770.91,-228 770.91,-240 770.91,-240 770.91,-246 764.91,-252 758.91,-252"/>
<text text-anchor="middle" x="743.91" y="-231.5" font-family="sans" font-size="10.00">gsea</text>
</g>
<!-- 5&#45;&gt;0 -->
<g id="edge5" class="edge">
<title>5&#45;&gt;0</title>
<path fill="none" stroke="grey" stroke-width="2" d="M740.67,-215.85C735.67,-183.91 729.8,-114.7 762.91,-72 786.78,-41.22 830.93,-28.3 862.67,-22.89"/>
<polygon fill="grey" stroke="grey" stroke-width="2" points="863.55,-26.29 872.91,-21.33 862.5,-19.37 863.55,-26.29"/>
</g>
<!-- 6 -->
<g id="node7" class="node">
<title>6</title>
<path fill="none" stroke="#569ad8" stroke-width="2" d="M914.91,-252C914.91,-252 884.91,-252 884.91,-252 878.91,-252 872.91,-246 872.91,-240 872.91,-240 872.91,-228 872.91,-228 872.91,-222 878.91,-216 884.91,-216 884.91,-216 914.91,-216 914.91,-216 920.91,-216 926.91,-222 926.91,-228 926.91,-228 926.91,-240 926.91,-240 926.91,-246 920.91,-252 914.91,-252"/>
<text text-anchor="middle" x="899.91" y="-231.5" font-family="sans" font-size="10.00">gsea</text>
</g>
<!-- 6&#45;&gt;0 -->
<g id="edge6" class="edge">
<title>6&#45;&gt;0</title>
<path fill="none" stroke="grey" stroke-width="2" d="M899.91,-215.85C899.91,-178.83 899.91,-91.18 899.91,-46.39"/>
<polygon fill="grey" stroke="grey" stroke-width="2" points="903.41,-46.23 899.91,-36.23 896.41,-46.23 903.41,-46.23"/>
</g>
<!-- 7 -->
<g id="node8" class="node">
<title>7</title>
<path fill="none" stroke="#569ad8" stroke-width="2" d="M1070.91,-252C1070.91,-252 1040.91,-252 1040.91,-252 1034.91,-252 1028.91,-246 1028.91,-240 1028.91,-240 1028.91,-228 1028.91,-228 1028.91,-222 1034.91,-216 1040.91,-216 1040.91,-216 1070.91,-216 1070.91,-216 1076.91,-216 1082.91,-222 1082.91,-228 1082.91,-228 1082.91,-240 1082.91,-240 1082.91,-246 1076.91,-252 1070.91,-252"/>
<text text-anchor="middle" x="1055.91" y="-231.5" font-family="sans" font-size="10.00">gsea</text>
</g>
<!-- 7&#45;&gt;0 -->
<g id="edge7" class="edge">
<title>7&#45;&gt;0</title>
<path fill="none" stroke="grey" stroke-width="2" d="M1059.15,-215.85C1064.16,-183.91 1070.03,-114.7 1036.91,-72 1013.04,-41.22 968.89,-28.3 937.15,-22.89"/>
<polygon fill="grey" stroke="grey" stroke-width="2" points="937.33,-19.37 926.91,-21.33 936.27,-26.29 937.33,-19.37"/>
</g>
<!-- 8 -->
<g id="node9" class="node">
<title>8</title>
<path fill="none" stroke="#569ad8" stroke-width="2" d="M1239.91,-252C1239.91,-252 1209.91,-252 1209.91,-252 1203.91,-252 1197.91,-246 1197.91,-240 1197.91,-240 1197.91,-228 1197.91,-228 1197.91,-222 1203.91,-216 1209.91,-216 1209.91,-216 1239.91,-216 1239.91,-216 1245.91,-216 1251.91,-222 1251.91,-228 1251.91,-228 1251.91,-240 1251.91,-240 1251.91,-246 1245.91,-252 1239.91,-252"/>
<text text-anchor="middle" x="1224.91" y="-231.5" font-family="sans" font-size="10.00">gsea</text>
</g>
<!-- 8&#45;&gt;0 -->
<g id="edge8" class="edge">
<title>8&#45;&gt;0</title>
<path fill="none" stroke="grey" stroke-width="2" d="M1224.74,-215.89C1223.43,-182.76 1215.56,-109.79 1172.91,-72 1138.44,-41.45 1003.71,-27 937.32,-21.62"/>
<polygon fill="grey" stroke="grey" stroke-width="2" points="937.52,-18.12 927.27,-20.83 936.97,-25.1 937.52,-18.12"/>
</g>
<!-- 9 -->
<g id="node10" class="node">
<title>9</title>
<path fill="none" stroke="#569ad8" stroke-width="2" d="M1407.91,-252C1407.91,-252 1377.91,-252 1377.91,-252 1371.91,-252 1365.91,-246 1365.91,-240 1365.91,-240 1365.91,-228 1365.91,-228 1365.91,-222 1371.91,-216 1377.91,-216 1377.91,-216 1407.91,-216 1407.91,-216 1413.91,-216 1419.91,-222 1419.91,-228 1419.91,-228 1419.91,-240 1419.91,-240 1419.91,-246 1413.91,-252 1407.91,-252"/>
<text text-anchor="middle" x="1392.91" y="-231.5" font-family="sans" font-size="10.00">gsea</text>
</g>
<!-- 9&#45;&gt;0 -->
<g id="edge9" class="edge">
<title>9&#45;&gt;0</title>
<path fill="none" stroke="grey" stroke-width="2" d="M1391.62,-215.78C1388.1,-182.12 1375.21,-107.76 1328.91,-72 1268.08,-25.01 1029.9,-19.29 937.16,-18.87"/>
<polygon fill="grey" stroke="grey" stroke-width="2" points="937.11,-15.37 927.1,-18.85 937.09,-22.37 937.11,-15.37"/>
</g>
<!-- 10 -->
<g id="node11" class="node">
<title>10</title>
<path fill="none" stroke="#569ad8" stroke-width="2" d="M1579.91,-252C1579.91,-252 1549.91,-252 1549.91,-252 1543.91,-252 1537.91,-246 1537.91,-240 1537.91,-240 1537.91,-228 1537.91,-228 1537.91,-222 1543.91,-216 1549.91,-216 1549.91,-216 1579.91,-216 1579.91,-216 1585.91,-216 1591.91,-222 1591.91,-228 1591.91,-228 1591.91,-240 1591.91,-240 1591.91,-246 1585.91,-252 1579.91,-252"/>
<text text-anchor="middle" x="1564.91" y="-231.5" font-family="sans" font-size="10.00">gsea</text>
</g>
<!-- 10&#45;&gt;0 -->
<g id="edge10" class="edge">
<title>10&#45;&gt;0</title>
<path fill="none" stroke="grey" stroke-width="2" d="M1562.12,-215.79C1555.59,-181.81 1535.94,-106.4 1485.91,-72 1440.77,-40.96 1059.78,-24.72 937.52,-20.28"/>
<polygon fill="grey" stroke="grey" stroke-width="2" points="937.29,-16.77 927.17,-19.91 937.04,-23.76 937.29,-16.77"/>
</g>
<!-- 11 -->
<g id="node12" class="node">
<title>11</title>
<path fill="none" stroke="#56d8d8" stroke-width="2" d="M188.41,-180C188.41,-180 145.41,-180 145.41,-180 139.41,-180 133.41,-174 133.41,-168 133.41,-168 133.41,-156 133.41,-156 133.41,-150 139.41,-144 145.41,-144 145.41,-144 188.41,-144 188.41,-144 194.41,-144 200.41,-150 200.41,-156 200.41,-156 200.41,-168 200.41,-168 200.41,-174 194.41,-180 188.41,-180"/>
<text text-anchor="middle" x="166.91" y="-159.5" font-family="sans" font-size="10.00">top_genes</text>
</g>
<!-- 11&#45;&gt;0 -->
<g id="edge11" class="edge">
<title>11&#45;&gt;0</title>
<path fill="none" stroke="grey" stroke-width="2" d="M180.3,-143.92C199.09,-120.47 232.89,-80.24 249.91,-72 359.1,-19.15 740.91,-17.64 862.45,-18.55"/>
<polygon fill="grey" stroke="grey" stroke-width="2" points="862.7,-22.06 872.73,-18.64 862.76,-15.06 862.7,-22.06"/>
</g>
<!-- 21 -->
<g id="node22" class="node">
<title>21</title>
<path fill="none" stroke="#97d856" stroke-width="2" d="M185.91,-108C185.91,-108 147.91,-108 147.91,-108 141.91,-108 135.91,-102 135.91,-96 135.91,-96 135.91,-84 135.91,-84 135.91,-78 141.91,-72 147.91,-72 147.91,-72 185.91,-72 185.91,-72 191.91,-72 197.91,-78 197.91,-84 197.91,-84 197.91,-96 197.91,-96 197.91,-102 191.91,-108 185.91,-108"/>
<text text-anchor="middle" x="166.91" y="-87.5" font-family="sans" font-size="10.00">string_db</text>
</g>
<!-- 11&#45;&gt;21 -->
<g id="edge62" class="edge">
<title>11&#45;&gt;21</title>
<path fill="none" stroke="grey" stroke-width="2" d="M166.91,-143.7C166.91,-135.98 166.91,-126.71 166.91,-118.11"/>
<polygon fill="grey" stroke="grey" stroke-width="2" points="170.41,-118.1 166.91,-108.1 163.41,-118.1 170.41,-118.1"/>
</g>
<!-- 12 -->
<g id="node13" class="node">
<title>12</title>
<path fill="none" stroke="#56d8d8" stroke-width="2" d="M347.41,-180C347.41,-180 304.41,-180 304.41,-180 298.41,-180 292.41,-174 292.41,-168 292.41,-168 292.41,-156 292.41,-156 292.41,-150 298.41,-144 304.41,-144 304.41,-144 347.41,-144 347.41,-144 353.41,-144 359.41,-150 359.41,-156 359.41,-156 359.41,-168 359.41,-168 359.41,-174 353.41,-180 347.41,-180"/>
<text text-anchor="middle" x="325.91" y="-159.5" font-family="sans" font-size="10.00">top_genes</text>
</g>
<!-- 12&#45;&gt;0 -->
<g id="edge12" class="edge">
<title>12&#45;&gt;0</title>
<path fill="none" stroke="grey" stroke-width="2" d="M321.49,-143.97C317.4,-123.86 314.42,-90.77 332.91,-72 370.09,-34.27 742.29,-22.57 862.61,-19.76"/>
<polygon fill="grey" stroke="grey" stroke-width="2" points="862.88,-23.25 872.8,-19.53 862.72,-16.25 862.88,-23.25"/>
</g>
<!-- 22 -->
<g id="node23" class="node">
<title>22</title>
<path fill="none" stroke="#97d856" stroke-width="2" d="M391.91,-108C391.91,-108 353.91,-108 353.91,-108 347.91,-108 341.91,-102 341.91,-96 341.91,-96 341.91,-84 341.91,-84 341.91,-78 347.91,-72 353.91,-72 353.91,-72 391.91,-72 391.91,-72 397.91,-72 403.91,-78 403.91,-84 403.91,-84 403.91,-96 403.91,-96 403.91,-102 397.91,-108 391.91,-108"/>
<text text-anchor="middle" x="372.91" y="-87.5" font-family="sans" font-size="10.00">string_db</text>
</g>
<!-- 12&#45;&gt;22 -->
<g id="edge63" class="edge">
<title>12&#45;&gt;22</title>
<path fill="none" stroke="grey" stroke-width="2" d="M337.53,-143.7C343.05,-135.47 349.76,-125.48 355.84,-116.42"/>
<polygon fill="grey" stroke="grey" stroke-width="2" points="358.76,-118.36 361.43,-108.1 352.95,-114.46 358.76,-118.36"/>
</g>
<!-- 13 -->
<g id="node14" class="node">
<title>13</title>
<path fill="none" stroke="#56d8d8" stroke-width="2" d="M515.41,-180C515.41,-180 472.41,-180 472.41,-180 466.41,-180 460.41,-174 460.41,-168 460.41,-168 460.41,-156 460.41,-156 460.41,-150 466.41,-144 472.41,-144 472.41,-144 515.41,-144 515.41,-144 521.41,-144 527.41,-150 527.41,-156 527.41,-156 527.41,-168 527.41,-168 527.41,-174 521.41,-180 515.41,-180"/>
<text text-anchor="middle" x="493.91" y="-159.5" font-family="sans" font-size="10.00">top_genes</text>
</g>
<!-- 13&#45;&gt;0 -->
<g id="edge13" class="edge">
<title>13&#45;&gt;0</title>
<path fill="none" stroke="grey" stroke-width="2" d="M504.2,-143.71C517.51,-123.02 542.73,-89.03 573.91,-72 623.2,-45.08 787.9,-28.33 862.56,-21.94"/>
<polygon fill="grey" stroke="grey" stroke-width="2" points="863.22,-25.4 872.9,-21.08 862.64,-18.42 863.22,-25.4"/>
</g>
<!-- 23 -->
<g id="node24" class="node">
<title>23</title>
<path fill="none" stroke="#97d856" stroke-width="2" d="M509.91,-108C509.91,-108 471.91,-108 471.91,-108 465.91,-108 459.91,-102 459.91,-96 459.91,-96 459.91,-84 459.91,-84 459.91,-78 465.91,-72 471.91,-72 471.91,-72 509.91,-72 509.91,-72 515.91,-72 521.91,-78 521.91,-84 521.91,-84 521.91,-96 521.91,-96 521.91,-102 515.91,-108 509.91,-108"/>
<text text-anchor="middle" x="490.91" y="-87.5" font-family="sans" font-size="10.00">string_db</text>
</g>
<!-- 13&#45;&gt;23 -->
<g id="edge64" class="edge">
<title>13&#45;&gt;23</title>
<path fill="none" stroke="grey" stroke-width="2" d="M493.17,-143.7C492.84,-135.98 492.44,-126.71 492.07,-118.11"/>
<polygon fill="grey" stroke="grey" stroke-width="2" points="495.57,-117.95 491.65,-108.1 488.58,-118.25 495.57,-117.95"/>
</g>
<!-- 14 -->
<g id="node15" class="node">
<title>14</title>
<path fill="none" stroke="#56d8d8" stroke-width="2" d="M687.41,-180C687.41,-180 644.41,-180 644.41,-180 638.41,-180 632.41,-174 632.41,-168 632.41,-168 632.41,-156 632.41,-156 632.41,-150 638.41,-144 644.41,-144 644.41,-144 687.41,-144 687.41,-144 693.41,-144 699.41,-150 699.41,-156 699.41,-156 699.41,-168 699.41,-168 699.41,-174 693.41,-180 687.41,-180"/>
<text text-anchor="middle" x="665.91" y="-159.5" font-family="sans" font-size="10.00">top_genes</text>
</g>
<!-- 14&#45;&gt;0 -->
<g id="edge14" class="edge">
<title>14&#45;&gt;0</title>
<path fill="none" stroke="grey" stroke-width="2" d="M654,-143.67C642.22,-124.17 628.18,-92.57 644.91,-72 671.94,-38.77 798.62,-25.7 862.66,-21.15"/>
<polygon fill="grey" stroke="grey" stroke-width="2" points="863,-24.63 872.74,-20.46 862.53,-17.65 863,-24.63"/>
</g>
<!-- 24 -->
<g id="node25" class="node">
<title>24</title>
<path fill="none" stroke="#97d856" stroke-width="2" d="M703.91,-108C703.91,-108 665.91,-108 665.91,-108 659.91,-108 653.91,-102 653.91,-96 653.91,-96 653.91,-84 653.91,-84 653.91,-78 659.91,-72 665.91,-72 665.91,-72 703.91,-72 703.91,-72 709.91,-72 715.91,-78 715.91,-84 715.91,-84 715.91,-96 715.91,-96 715.91,-102 709.91,-108 703.91,-108"/>
<text text-anchor="middle" x="684.91" y="-87.5" font-family="sans" font-size="10.00">string_db</text>
</g>
<!-- 14&#45;&gt;24 -->
<g id="edge65" class="edge">
<title>14&#45;&gt;24</title>
<path fill="none" stroke="grey" stroke-width="2" d="M670.61,-143.7C672.73,-135.9 675.27,-126.51 677.63,-117.83"/>
<polygon fill="grey" stroke="grey" stroke-width="2" points="681.03,-118.67 680.27,-108.1 674.27,-116.84 681.03,-118.67"/>
</g>
<!-- 15 -->
<g id="node16" class="node">
<title>15</title>
<path fill="none" stroke="#56d8d8" stroke-width="2" d="M843.41,-180C843.41,-180 800.41,-180 800.41,-180 794.41,-180 788.41,-174 788.41,-168 788.41,-168 788.41,-156 788.41,-156 788.41,-150 794.41,-144 800.41,-144 800.41,-144 843.41,-144 843.41,-144 849.41,-144 855.41,-150 855.41,-156 855.41,-156 855.41,-168 855.41,-168 855.41,-174 849.41,-180 843.41,-180"/>
<text text-anchor="middle" x="821.91" y="-159.5" font-family="sans" font-size="10.00">top_genes</text>
</g>
<!-- 15&#45;&gt;0 -->
<g id="edge15" class="edge">
<title>15&#45;&gt;0</title>
<path fill="none" stroke="grey" stroke-width="2" d="M831.32,-143.87C844.79,-119.35 869.68,-74.03 885.49,-45.26"/>
<polygon fill="grey" stroke="grey" stroke-width="2" points="888.72,-46.64 890.47,-36.19 882.59,-43.27 888.72,-46.64"/>
</g>
<!-- 25 -->
<g id="node26" class="node">
<title>25</title>
<path fill="none" stroke="#97d856" stroke-width="2" d="M821.91,-108C821.91,-108 783.91,-108 783.91,-108 777.91,-108 771.91,-102 771.91,-96 771.91,-96 771.91,-84 771.91,-84 771.91,-78 777.91,-72 783.91,-72 783.91,-72 821.91,-72 821.91,-72 827.91,-72 833.91,-78 833.91,-84 833.91,-84 833.91,-96 833.91,-96 833.91,-102 827.91,-108 821.91,-108"/>
<text text-anchor="middle" x="802.91" y="-87.5" font-family="sans" font-size="10.00">string_db</text>
</g>
<!-- 15&#45;&gt;25 -->
<g id="edge66" class="edge">
<title>15&#45;&gt;25</title>
<path fill="none" stroke="grey" stroke-width="2" d="M817.22,-143.7C815.1,-135.9 812.55,-126.51 810.19,-117.83"/>
<polygon fill="grey" stroke="grey" stroke-width="2" points="813.55,-116.84 807.56,-108.1 806.8,-118.67 813.55,-116.84"/>
</g>
<!-- 16 -->
<g id="node17" class="node">
<title>16</title>
<path fill="none" stroke="#56d8d8" stroke-width="2" d="M999.41,-180C999.41,-180 956.41,-180 956.41,-180 950.41,-180 944.41,-174 944.41,-168 944.41,-168 944.41,-156 944.41,-156 944.41,-150 950.41,-144 956.41,-144 956.41,-144 999.41,-144 999.41,-144 1005.41,-144 1011.41,-150 1011.41,-156 1011.41,-156 1011.41,-168 1011.41,-168 1011.41,-174 1005.41,-180 999.41,-180"/>
<text text-anchor="middle" x="977.91" y="-159.5" font-family="sans" font-size="10.00">top_genes</text>
</g>
<!-- 16&#45;&gt;0 -->
<g id="edge16" class="edge">
<title>16&#45;&gt;0</title>
<path fill="none" stroke="grey" stroke-width="2" d="M968.5,-143.87C955.03,-119.35 930.14,-74.03 914.34,-45.26"/>
<polygon fill="grey" stroke="grey" stroke-width="2" points="917.24,-43.27 909.35,-36.19 911.1,-46.64 917.24,-43.27"/>
</g>
<!-- 26 -->
<g id="node27" class="node">
<title>26</title>
<path fill="none" stroke="#97d856" stroke-width="2" d="M1015.91,-108C1015.91,-108 977.91,-108 977.91,-108 971.91,-108 965.91,-102 965.91,-96 965.91,-96 965.91,-84 965.91,-84 965.91,-78 971.91,-72 977.91,-72 977.91,-72 1015.91,-72 1015.91,-72 1021.91,-72 1027.91,-78 1027.91,-84 1027.91,-84 1027.91,-96 1027.91,-96 1027.91,-102 1021.91,-108 1015.91,-108"/>
<text text-anchor="middle" x="996.91" y="-87.5" font-family="sans" font-size="10.00">string_db</text>
</g>
<!-- 16&#45;&gt;26 -->
<g id="edge67" class="edge">
<title>16&#45;&gt;26</title>
<path fill="none" stroke="grey" stroke-width="2" d="M982.61,-143.7C984.73,-135.9 987.27,-126.51 989.63,-117.83"/>
<polygon fill="grey" stroke="grey" stroke-width="2" points="993.03,-118.67 992.27,-108.1 986.27,-116.84 993.03,-118.67"/>
</g>
<!-- 17 -->
<g id="node18" class="node">
<title>17</title>
<path fill="none" stroke="#56d8d8" stroke-width="2" d="M1170.41,-180C1170.41,-180 1127.41,-180 1127.41,-180 1121.41,-180 1115.41,-174 1115.41,-168 1115.41,-168 1115.41,-156 1115.41,-156 1115.41,-150 1121.41,-144 1127.41,-144 1127.41,-144 1170.41,-144 1170.41,-144 1176.41,-144 1182.41,-150 1182.41,-156 1182.41,-156 1182.41,-168 1182.41,-168 1182.41,-174 1176.41,-180 1170.41,-180"/>
<text text-anchor="middle" x="1148.91" y="-159.5" font-family="sans" font-size="10.00">top_genes</text>
</g>
<!-- 17&#45;&gt;0 -->
<g id="edge17" class="edge">
<title>17&#45;&gt;0</title>
<path fill="none" stroke="grey" stroke-width="2" d="M1156.37,-143.83C1163.62,-124.2 1171.33,-92.18 1154.91,-72 1127.88,-38.77 1001.2,-25.7 937.17,-21.15"/>
<polygon fill="grey" stroke="grey" stroke-width="2" points="937.3,-17.65 927.08,-20.46 936.82,-24.63 937.3,-17.65"/>
</g>
<!-- 27 -->
<g id="node28" class="node">
<title>27</title>
<path fill="none" stroke="#97d856" stroke-width="2" d="M1133.91,-108C1133.91,-108 1095.91,-108 1095.91,-108 1089.91,-108 1083.91,-102 1083.91,-96 1083.91,-96 1083.91,-84 1083.91,-84 1083.91,-78 1089.91,-72 1095.91,-72 1095.91,-72 1133.91,-72 1133.91,-72 1139.91,-72 1145.91,-78 1145.91,-84 1145.91,-84 1145.91,-96 1145.91,-96 1145.91,-102 1139.91,-108 1133.91,-108"/>
<text text-anchor="middle" x="1114.91" y="-87.5" font-family="sans" font-size="10.00">string_db</text>
</g>
<!-- 17&#45;&gt;27 -->
<g id="edge68" class="edge">
<title>17&#45;&gt;27</title>
<path fill="none" stroke="grey" stroke-width="2" d="M1140.51,-143.7C1136.64,-135.73 1131.96,-126.1 1127.67,-117.26"/>
<polygon fill="grey" stroke="grey" stroke-width="2" points="1130.74,-115.57 1123.22,-108.1 1124.44,-118.63 1130.74,-115.57"/>
</g>
<!-- 18 -->
<g id="node19" class="node">
<title>18</title>
<path fill="none" stroke="#56d8d8" stroke-width="2" d="M1324.41,-180C1324.41,-180 1281.41,-180 1281.41,-180 1275.41,-180 1269.41,-174 1269.41,-168 1269.41,-168 1269.41,-156 1269.41,-156 1269.41,-150 1275.41,-144 1281.41,-144 1281.41,-144 1324.41,-144 1324.41,-144 1330.41,-144 1336.41,-150 1336.41,-156 1336.41,-156 1336.41,-168 1336.41,-168 1336.41,-174 1330.41,-180 1324.41,-180"/>
<text text-anchor="middle" x="1302.91" y="-159.5" font-family="sans" font-size="10.00">top_genes</text>
</g>
<!-- 18&#45;&gt;0 -->
<g id="edge18" class="edge">
<title>18&#45;&gt;0</title>
<path fill="none" stroke="grey" stroke-width="2" d="M1311.06,-143.97C1319.19,-124.17 1328.23,-91.69 1310.91,-72 1286.39,-44.11 1033.98,-26.73 937.31,-21.05"/>
<polygon fill="grey" stroke="grey" stroke-width="2" points="937.3,-17.54 927.11,-20.46 936.89,-24.53 937.3,-17.54"/>
</g>
<!-- 28 -->
<g id="node29" class="node">
<title>28</title>
<path fill="none" stroke="#97d856" stroke-width="2" d="M1289.91,-108C1289.91,-108 1251.91,-108 1251.91,-108 1245.91,-108 1239.91,-102 1239.91,-96 1239.91,-96 1239.91,-84 1239.91,-84 1239.91,-78 1245.91,-72 1251.91,-72 1251.91,-72 1289.91,-72 1289.91,-72 1295.91,-72 1301.91,-78 1301.91,-84 1301.91,-84 1301.91,-96 1301.91,-96 1301.91,-102 1295.91,-108 1289.91,-108"/>
<text text-anchor="middle" x="1270.91" y="-87.5" font-family="sans" font-size="10.00">string_db</text>
</g>
<!-- 18&#45;&gt;28 -->
<g id="edge69" class="edge">
<title>18&#45;&gt;28</title>
<path fill="none" stroke="grey" stroke-width="2" d="M1295,-143.7C1291.36,-135.73 1286.96,-126.1 1282.92,-117.26"/>
<polygon fill="grey" stroke="grey" stroke-width="2" points="1286.07,-115.74 1278.73,-108.1 1279.71,-118.65 1286.07,-115.74"/>
</g>
<!-- 19 -->
<g id="node20" class="node">
<title>19</title>
<path fill="none" stroke="#56d8d8" stroke-width="2" d="M1488.41,-180C1488.41,-180 1445.41,-180 1445.41,-180 1439.41,-180 1433.41,-174 1433.41,-168 1433.41,-168 1433.41,-156 1433.41,-156 1433.41,-150 1439.41,-144 1445.41,-144 1445.41,-144 1488.41,-144 1488.41,-144 1494.41,-144 1500.41,-150 1500.41,-156 1500.41,-156 1500.41,-168 1500.41,-168 1500.41,-174 1494.41,-180 1488.41,-180"/>
<text text-anchor="middle" x="1466.91" y="-159.5" font-family="sans" font-size="10.00">top_genes</text>
</g>
<!-- 19&#45;&gt;0 -->
<g id="edge19" class="edge">
<title>19&#45;&gt;0</title>
<path fill="none" stroke="grey" stroke-width="2" d="M1473.01,-143.84C1478.86,-123.91 1484.5,-91.3 1466.91,-72 1431.25,-32.85 1058.03,-22.1 937.33,-19.64"/>
<polygon fill="grey" stroke="grey" stroke-width="2" points="937.18,-16.14 927.11,-19.44 937.04,-23.14 937.18,-16.14"/>
</g>
<!-- 29 -->
<g id="node30" class="node">
<title>29</title>
<path fill="none" stroke="#97d856" stroke-width="2" d="M1445.91,-108C1445.91,-108 1407.91,-108 1407.91,-108 1401.91,-108 1395.91,-102 1395.91,-96 1395.91,-96 1395.91,-84 1395.91,-84 1395.91,-78 1401.91,-72 1407.91,-72 1407.91,-72 1445.91,-72 1445.91,-72 1451.91,-72 1457.91,-78 1457.91,-84 1457.91,-84 1457.91,-96 1457.91,-96 1457.91,-102 1451.91,-108 1445.91,-108"/>
<text text-anchor="middle" x="1426.91" y="-87.5" font-family="sans" font-size="10.00">string_db</text>
</g>
<!-- 19&#45;&gt;29 -->
<g id="edge70" class="edge">
<title>19&#45;&gt;29</title>
<path fill="none" stroke="grey" stroke-width="2" d="M1457.03,-143.7C1452.42,-135.64 1446.85,-125.89 1441.76,-116.98"/>
<polygon fill="grey" stroke="grey" stroke-width="2" points="1444.69,-115.05 1436.69,-108.1 1438.61,-118.52 1444.69,-115.05"/>
</g>
<!-- 20 -->
<g id="node21" class="node">
<title>20</title>
<path fill="none" stroke="#56d8d8" stroke-width="2" d="M1647.41,-180C1647.41,-180 1604.41,-180 1604.41,-180 1598.41,-180 1592.41,-174 1592.41,-168 1592.41,-168 1592.41,-156 1592.41,-156 1592.41,-150 1598.41,-144 1604.41,-144 1604.41,-144 1647.41,-144 1647.41,-144 1653.41,-144 1659.41,-150 1659.41,-156 1659.41,-156 1659.41,-168 1659.41,-168 1659.41,-174 1653.41,-180 1647.41,-180"/>
<text text-anchor="middle" x="1625.91" y="-159.5" font-family="sans" font-size="10.00">top_genes</text>
</g>
<!-- 20&#45;&gt;0 -->
<g id="edge20" class="edge">
<title>20&#45;&gt;0</title>
<path fill="none" stroke="grey" stroke-width="2" d="M1612.52,-143.93C1593.73,-120.47 1559.93,-80.25 1542.91,-72 1435.04,-19.72 1058.06,-17.81 937.38,-18.59"/>
<polygon fill="grey" stroke="grey" stroke-width="2" points="937.14,-15.09 927.17,-18.67 937.19,-22.09 937.14,-15.09"/>
</g>
<!-- 30 -->
<g id="node31" class="node">
<title>30</title>
<path fill="none" stroke="#97d856" stroke-width="2" d="M1644.91,-108C1644.91,-108 1606.91,-108 1606.91,-108 1600.91,-108 1594.91,-102 1594.91,-96 1594.91,-96 1594.91,-84 1594.91,-84 1594.91,-78 1600.91,-72 1606.91,-72 1606.91,-72 1644.91,-72 1644.91,-72 1650.91,-72 1656.91,-78 1656.91,-84 1656.91,-84 1656.91,-96 1656.91,-96 1656.91,-102 1650.91,-108 1644.91,-108"/>
<text text-anchor="middle" x="1625.91" y="-87.5" font-family="sans" font-size="10.00">string_db</text>
</g>
<!-- 20&#45;&gt;30 -->
<g id="edge71" class="edge">
<title>20&#45;&gt;30</title>
<path fill="none" stroke="grey" stroke-width="2" d="M1625.91,-143.7C1625.91,-135.98 1625.91,-126.71 1625.91,-118.11"/>
<polygon fill="grey" stroke="grey" stroke-width="2" points="1629.41,-118.1 1625.91,-108.1 1622.41,-118.1 1629.41,-118.1"/>
</g>
<!-- 21&#45;&gt;0 -->
<g id="edge21" class="edge">
<title>21&#45;&gt;0</title>
<path fill="none" stroke="grey" stroke-width="2" d="M198.04,-75.95C202.63,-74.4 207.35,-73.02 211.91,-72 337.75,-43.99 738.29,-25.61 862.69,-20.47"/>
<polygon fill="grey" stroke="grey" stroke-width="2" points="863,-23.96 872.85,-20.06 862.72,-16.97 863,-23.96"/>
</g>
<!-- 22&#45;&gt;0 -->
<g id="edge22" class="edge">
<title>22&#45;&gt;0</title>
<path fill="none" stroke="grey" stroke-width="2" d="M404.07,-76.08C408.65,-74.52 413.36,-73.09 417.91,-72 580.48,-33.02 780.87,-22.62 862.58,-19.92"/>
<polygon fill="grey" stroke="grey" stroke-width="2" points="862.97,-23.41 872.86,-19.6 862.75,-16.41 862.97,-23.41"/>
</g>
<!-- 23&#45;&gt;0 -->
<g id="edge23" class="edge">
<title>23&#45;&gt;0</title>
<path fill="none" stroke="grey" stroke-width="2" d="M522.1,-76.23C526.68,-74.64 531.38,-73.17 535.91,-72 653,-41.74 796.04,-27.25 862.57,-21.75"/>
<polygon fill="grey" stroke="grey" stroke-width="2" points="862.89,-25.24 872.57,-20.95 862.32,-18.26 862.89,-25.24"/>
</g>
<!-- 24&#45;&gt;0 -->
<g id="edge24" class="edge">
<title>24&#45;&gt;0</title>
<path fill="none" stroke="grey" stroke-width="2" d="M716.3,-76.87C720.85,-75.19 725.49,-73.52 729.91,-72 775.4,-56.33 828.42,-40.12 862.99,-29.83"/>
<polygon fill="grey" stroke="grey" stroke-width="2" points="864.07,-33.16 872.66,-26.95 862.08,-26.44 864.07,-33.16"/>
</g>
<!-- 25&#45;&gt;0 -->
<g id="edge25" class="edge">
<title>25&#45;&gt;0</title>
<path fill="none" stroke="grey" stroke-width="2" d="M826.89,-71.7C839.22,-62.8 854.43,-51.82 867.77,-42.2"/>
<polygon fill="grey" stroke="grey" stroke-width="2" points="870.15,-44.79 876.21,-36.1 866.05,-39.12 870.15,-44.79"/>
</g>
<!-- 26&#45;&gt;0 -->
<g id="edge26" class="edge">
<title>26&#45;&gt;0</title>
<path fill="none" stroke="grey" stroke-width="2" d="M972.94,-71.7C960.6,-62.8 945.4,-51.82 932.06,-42.2"/>
<polygon fill="grey" stroke="grey" stroke-width="2" points="933.77,-39.12 923.61,-36.1 929.68,-44.79 933.77,-39.12"/>
</g>
<!-- 27&#45;&gt;0 -->
<g id="edge27" class="edge">
<title>27&#45;&gt;0</title>
<path fill="none" stroke="grey" stroke-width="2" d="M1083.53,-76.87C1078.98,-75.19 1074.33,-73.52 1069.91,-72 1024.42,-56.33 971.41,-40.12 936.84,-29.83"/>
<polygon fill="grey" stroke="grey" stroke-width="2" points="937.74,-26.44 927.16,-26.95 935.75,-33.16 937.74,-26.44"/>
</g>
<!-- 28&#45;&gt;0 -->
<g id="edge28" class="edge">
<title>28&#45;&gt;0</title>
<path fill="none" stroke="grey" stroke-width="2" d="M1239.7,-76.3C1235.13,-74.7 1230.43,-73.21 1225.91,-72 1123.23,-44.55 998.32,-29.07 937.22,-22.61"/>
<polygon fill="grey" stroke="grey" stroke-width="2" points="937.22,-19.09 926.92,-21.54 936.5,-26.05 937.22,-19.09"/>
</g>
<!-- 29&#45;&gt;0 -->
<g id="edge29" class="edge">
<title>29&#45;&gt;0</title>
<path fill="none" stroke="grey" stroke-width="2" d="M1395.76,-76.08C1391.17,-74.52 1386.46,-73.09 1381.91,-72 1219.34,-33.02 1018.95,-22.62 937.24,-19.92"/>
<polygon fill="grey" stroke="grey" stroke-width="2" points="937.07,-16.41 926.97,-19.6 936.85,-23.41 937.07,-16.41"/>
</g>
<!-- 30&#45;&gt;0 -->
<g id="edge30" class="edge">
<title>30&#45;&gt;0</title>
<path fill="none" stroke="grey" stroke-width="2" d="M1594.79,-75.95C1590.2,-74.4 1585.48,-73.02 1580.91,-72 1456.5,-44.25 1060.78,-25.73 937.17,-20.51"/>
<polygon fill="grey" stroke="grey" stroke-width="2" points="937.21,-17.01 927.07,-20.09 936.92,-24 937.21,-17.01"/>
</g>
<!-- 31 -->
<g id="node32" class="node">
<title>31</title>
<path fill="none" stroke="#59d856" stroke-width="2" d="M1753.91,-180C1753.91,-180 1703.91,-180 1703.91,-180 1697.91,-180 1691.91,-174 1691.91,-168 1691.91,-168 1691.91,-156 1691.91,-156 1691.91,-150 1697.91,-144 1703.91,-144 1703.91,-144 1753.91,-144 1753.91,-144 1759.91,-144 1765.91,-150 1765.91,-156 1765.91,-156 1765.91,-168 1765.91,-168 1765.91,-174 1759.91,-180 1753.91,-180"/>
<text text-anchor="middle" x="1728.91" y="-159.5" font-family="sans" font-size="10.00">plot_graphs</text>
</g>
<!-- 31&#45;&gt;0 -->
<g id="edge31" class="edge">
<title>31&#45;&gt;0</title>
<path fill="none" stroke="grey" stroke-width="2" d="M1722.18,-143.69C1712.98,-122.64 1694.3,-87.95 1665.91,-72 1602,-36.08 1082.25,-22.76 937.31,-19.72"/>
<polygon fill="grey" stroke="grey" stroke-width="2" points="937.22,-16.22 927.15,-19.51 937.08,-23.21 937.22,-16.22"/>
</g>
<!-- 32 -->
<g id="node33" class="node">
<title>32</title>
<path fill="none" stroke="#d85656" stroke-width="2" d="M901.41,-401C901.41,-401 860.41,-401 860.41,-401 854.41,-401 848.41,-395 848.41,-389 848.41,-389 848.41,-377 848.41,-377 848.41,-371 854.41,-365 860.41,-365 860.41,-365 901.41,-365 901.41,-365 907.41,-365 913.41,-371 913.41,-377 913.41,-377 913.41,-389 913.41,-389 913.41,-395 907.41,-401 901.41,-401"/>
<text text-anchor="middle" x="880.91" y="-380.5" font-family="sans" font-size="10.00">load_data</text>
</g>
<!-- 32&#45;&gt;1 -->
<g id="edge32" class="edge">
<title>32&#45;&gt;1</title>
<path fill="none" stroke="grey" stroke-width="2" d="M848.2,-381.26C693,-377.57 37.26,-360.19 7.91,-329 -11.16,-308.74 9.48,-279.81 29.73,-259.41"/>
<polygon fill="grey" stroke="grey" stroke-width="2" points="32.32,-261.77 37.1,-252.31 27.47,-256.73 32.32,-261.77"/>
</g>
<!-- 32&#45;&gt;2 -->
<g id="edge34" class="edge">
<title>32&#45;&gt;2</title>
<path fill="none" stroke="grey" stroke-width="2" d="M848.13,-382.04C716.76,-381.87 233.22,-377.9 187.91,-329 169,-308.59 189.61,-279.69 209.81,-259.33"/>
<polygon fill="grey" stroke="grey" stroke-width="2" points="212.39,-261.71 217.16,-252.25 207.53,-256.67 212.39,-261.71"/>
</g>
<!-- 32&#45;&gt;3 -->
<g id="edge36" class="edge">
<title>32&#45;&gt;3</title>
<path fill="none" stroke="grey" stroke-width="2" d="M848.13,-381.11C740.08,-377.83 400.15,-364.74 367.91,-329 349.36,-308.43 369.56,-279.55 389.36,-259.25"/>
<polygon fill="grey" stroke="grey" stroke-width="2" points="391.87,-261.69 396.56,-252.19 386.97,-256.69 391.87,-261.69"/>
</g>
<!-- 32&#45;&gt;4 -->
<g id="edge38" class="edge">
<title>32&#45;&gt;4</title>
<path fill="none" stroke="grey" stroke-width="2" d="M848.4,-381.93C772.35,-381.01 586.39,-374.09 547.91,-329 530.74,-308.87 547.17,-280.28 563.87,-259.92"/>
<polygon fill="grey" stroke="grey" stroke-width="2" points="566.57,-262.15 570.45,-252.29 561.27,-257.57 566.57,-262.15"/>
</g>
<!-- 32&#45;&gt;5 -->
<g id="edge40" class="edge">
<title>32&#45;&gt;5</title>
<path fill="none" stroke="grey" stroke-width="2" d="M848.17,-381.1C811.95,-378.15 755.14,-367.24 727.91,-329 713.97,-309.41 721,-281.8 729.69,-261.56"/>
<polygon fill="grey" stroke="grey" stroke-width="2" points="732.96,-262.84 734,-252.29 726.61,-259.88 732.96,-262.84"/>
</g>
<!-- 32&#45;&gt;6 -->
<g id="edge42" class="edge">
<title>32&#45;&gt;6</title>
<path fill="none" stroke="grey" stroke-width="2" d="M883.13,-364.85C886.39,-339.62 892.51,-292.26 896.39,-262.24"/>
<polygon fill="grey" stroke="grey" stroke-width="2" points="899.9,-262.41 897.71,-252.04 892.96,-261.51 899.9,-262.41"/>
</g>
<!-- 32&#45;&gt;7 -->
<g id="edge44" class="edge">
<title>32&#45;&gt;7</title>
<path fill="none" stroke="grey" stroke-width="2" d="M913.69,-376.03C942.94,-369.19 985.3,-355.33 1012.91,-329 1031.91,-310.88 1043.24,-282.78 1049.46,-262.01"/>
<polygon fill="grey" stroke="grey" stroke-width="2" points="1052.88,-262.77 1052.18,-252.2 1046.13,-260.9 1052.88,-262.77"/>
</g>
<!-- 32&#45;&gt;8 -->
<g id="edge46" class="edge">
<title>32&#45;&gt;8</title>
<path fill="none" stroke="grey" stroke-width="2" d="M913.59,-380.24C983.42,-375.87 1144.21,-362.37 1185.91,-329 1206.42,-312.59 1216.26,-283.54 1220.91,-262.06"/>
<polygon fill="grey" stroke="grey" stroke-width="2" points="1224.35,-262.69 1222.8,-252.21 1217.48,-261.38 1224.35,-262.69"/>
</g>
<!-- 32&#45;&gt;9 -->
<g id="edge48" class="edge">
<title>32&#45;&gt;9</title>
<path fill="none" stroke="grey" stroke-width="2" d="M913.43,-382.64C1009.15,-383.86 1287.5,-382.64 1356.91,-329 1377.59,-313.02 1386.39,-283.64 1390.14,-261.96"/>
<polygon fill="grey" stroke="grey" stroke-width="2" points="1393.61,-262.43 1391.6,-252.03 1386.68,-261.41 1393.61,-262.43"/>
</g>
<!-- 32&#45;&gt;10 -->
<g id="edge50" class="edge">
<title>32&#45;&gt;10</title>
<path fill="none" stroke="grey" stroke-width="2" d="M913.65,-381.34C1038.39,-378.56 1479.35,-366.16 1528.91,-329 1549.82,-313.32 1558.59,-283.89 1562.26,-262.12"/>
<polygon fill="grey" stroke="grey" stroke-width="2" points="1565.74,-262.54 1563.69,-252.14 1558.81,-261.54 1565.74,-262.54"/>
</g>
<!-- 32&#45;&gt;31 -->
<g id="edge72" class="edge">
<title>32&#45;&gt;31</title>
<path fill="none" stroke="grey" stroke-width="2" d="M913.85,-382.23C1059.57,-382.96 1641.67,-382.46 1700.91,-329 1739.52,-294.16 1737.99,-227.56 1733.46,-190.17"/>
<polygon fill="grey" stroke="grey" stroke-width="2" points="1736.89,-189.45 1732.07,-180.02 1729.96,-190.4 1736.89,-189.45"/>
</g>
<!-- 33 -->
<g id="node34" class="node">
<title>33</title>
<path fill="none" stroke="#d6d856" stroke-width="2" d="M90.91,-329C90.91,-329 28.91,-329 28.91,-329 22.91,-329 16.91,-323 16.91,-317 16.91,-317 16.91,-300 16.91,-300 16.91,-294 22.91,-288 28.91,-288 28.91,-288 90.91,-288 90.91,-288 96.91,-288 102.91,-294 102.91,-300 102.91,-300 102.91,-317 102.91,-317 102.91,-323 96.91,-329 90.91,-329"/>
<text text-anchor="middle" x="59.91" y="-317" font-family="sans" font-size="10.00">mix_markup</text>
<text text-anchor="middle" x="59.91" y="-306" font-family="sans" font-size="10.00">pair0: Healthy</text>
<text text-anchor="middle" x="59.91" y="-295" font-family="sans" font-size="10.00">pair1: HOIL</text>
</g>
<!-- 32&#45;&gt;33 -->
<g id="edge73" class="edge">
<title>32&#45;&gt;33</title>
<path fill="none" stroke="grey" stroke-width="2" d="M848.34,-380.87C721.46,-376.29 260.27,-357.98 116.91,-329 115.64,-328.74 114.36,-328.47 113.08,-328.17"/>
<polygon fill="grey" stroke="grey" stroke-width="2" points="113.72,-324.72 103.16,-325.59 111.96,-331.5 113.72,-324.72"/>
</g>
<!-- 34 -->
<g id="node35" class="node">
<title>34</title>
<path fill="none" stroke="#d6d856" stroke-width="2" d="M270.91,-329C270.91,-329 208.91,-329 208.91,-329 202.91,-329 196.91,-323 196.91,-317 196.91,-317 196.91,-300 196.91,-300 196.91,-294 202.91,-288 208.91,-288 208.91,-288 270.91,-288 270.91,-288 276.91,-288 282.91,-294 282.91,-300 282.91,-300 282.91,-317 282.91,-317 282.91,-323 276.91,-329 270.91,-329"/>
<text text-anchor="middle" x="239.91" y="-317" font-family="sans" font-size="10.00">mix_markup</text>
<text text-anchor="middle" x="239.91" y="-306" font-family="sans" font-size="10.00">pair0: Healthy</text>
<text text-anchor="middle" x="239.91" y="-295" font-family="sans" font-size="10.00">pair1: CINCA</text>
</g>
<!-- 32&#45;&gt;34 -->
<g id="edge74" class="edge">
<title>32&#45;&gt;34</title>
<path fill="none" stroke="grey" stroke-width="2" d="M848.22,-381.76C758.88,-380.51 503.52,-373.05 296.91,-329 295.65,-328.73 294.37,-328.44 293.09,-328.13"/>
<polygon fill="grey" stroke="grey" stroke-width="2" points="293.74,-324.69 283.18,-325.5 291.94,-331.45 293.74,-324.69"/>
</g>
<!-- 35 -->
<g id="node36" class="node">
<title>35</title>
<path fill="none" stroke="#d6d856" stroke-width="2" d="M450.91,-329C450.91,-329 388.91,-329 388.91,-329 382.91,-329 376.91,-323 376.91,-317 376.91,-317 376.91,-300 376.91,-300 376.91,-294 382.91,-288 388.91,-288 388.91,-288 450.91,-288 450.91,-288 456.91,-288 462.91,-294 462.91,-300 462.91,-300 462.91,-317 462.91,-317 462.91,-323 456.91,-329 450.91,-329"/>
<text text-anchor="middle" x="419.91" y="-317" font-family="sans" font-size="10.00">mix_markup</text>
<text text-anchor="middle" x="419.91" y="-306" font-family="sans" font-size="10.00">pair0: Healthy</text>
<text text-anchor="middle" x="419.91" y="-295" font-family="sans" font-size="10.00">pair1: MWS</text>
</g>
<!-- 32&#45;&gt;35 -->
<g id="edge75" class="edge">
<title>32&#45;&gt;35</title>
<path fill="none" stroke="grey" stroke-width="2" d="M848.31,-379.93C779.12,-375.07 612.77,-360.82 476.91,-329 475.65,-328.7 474.38,-328.39 473.1,-328.07"/>
<polygon fill="grey" stroke="grey" stroke-width="2" points="473.79,-324.63 463.22,-325.31 471.91,-331.37 473.79,-324.63"/>
</g>
<!-- 36 -->
<g id="node37" class="node">
<title>36</title>
<path fill="none" stroke="#d6d856" stroke-width="2" d="M630.91,-329C630.91,-329 568.91,-329 568.91,-329 562.91,-329 556.91,-323 556.91,-317 556.91,-317 556.91,-300 556.91,-300 556.91,-294 562.91,-288 568.91,-288 568.91,-288 630.91,-288 630.91,-288 636.91,-288 642.91,-294 642.91,-300 642.91,-300 642.91,-317 642.91,-317 642.91,-323 636.91,-329 630.91,-329"/>
<text text-anchor="middle" x="599.91" y="-317" font-family="sans" font-size="10.00">mix_markup</text>
<text text-anchor="middle" x="599.91" y="-306" font-family="sans" font-size="10.00">pair0: Healthy</text>
<text text-anchor="middle" x="599.91" y="-295" font-family="sans" font-size="10.00">pair1: MVK</text>
</g>
<!-- 32&#45;&gt;36 -->
<g id="edge76" class="edge">
<title>32&#45;&gt;36</title>
<path fill="none" stroke="grey" stroke-width="2" d="M848.38,-375.34C804.57,-366.14 724.3,-348.45 656.91,-329 655.5,-328.59 654.07,-328.17 652.63,-327.74"/>
<polygon fill="grey" stroke="grey" stroke-width="2" points="653.62,-324.38 643.03,-324.74 651.54,-331.06 653.62,-324.38"/>
</g>
<!-- 37 -->
<g id="node38" class="node">
<title>37</title>
<path fill="none" stroke="#d6d856" stroke-width="2" d="M802.91,-329C802.91,-329 748.91,-329 748.91,-329 742.91,-329 736.91,-323 736.91,-317 736.91,-317 736.91,-300 736.91,-300 736.91,-294 742.91,-288 748.91,-288 748.91,-288 802.91,-288 802.91,-288 808.91,-288 814.91,-294 814.91,-300 814.91,-300 814.91,-317 814.91,-317 814.91,-323 808.91,-329 802.91,-329"/>
<text text-anchor="middle" x="775.91" y="-317" font-family="sans" font-size="10.00">mix_markup</text>
<text text-anchor="middle" x="775.91" y="-306" font-family="sans" font-size="10.00">pair0: HOIL</text>
<text text-anchor="middle" x="775.91" y="-295" font-family="sans" font-size="10.00">pair1: CINCA</text>
</g>
<!-- 32&#45;&gt;37 -->
<g id="edge77" class="edge">
<title>32&#45;&gt;37</title>
<path fill="none" stroke="grey" stroke-width="2" d="M856.03,-364.82C843.17,-355.94 827.23,-344.93 812.95,-335.08"/>
<polygon fill="grey" stroke="grey" stroke-width="2" points="814.54,-331.92 804.33,-329.12 810.57,-337.68 814.54,-331.92"/>
</g>
<!-- 38 -->
<g id="node39" class="node">
<title>38</title>
<path fill="none" stroke="#d6d856" stroke-width="2" d="M974.41,-329C974.41,-329 921.41,-329 921.41,-329 915.41,-329 909.41,-323 909.41,-317 909.41,-317 909.41,-300 909.41,-300 909.41,-294 915.41,-288 921.41,-288 921.41,-288 974.41,-288 974.41,-288 980.41,-288 986.41,-294 986.41,-300 986.41,-300 986.41,-317 986.41,-317 986.41,-323 980.41,-329 974.41,-329"/>
<text text-anchor="middle" x="947.91" y="-317" font-family="sans" font-size="10.00">mix_markup</text>
<text text-anchor="middle" x="947.91" y="-306" font-family="sans" font-size="10.00">pair0: HOIL</text>
<text text-anchor="middle" x="947.91" y="-295" font-family="sans" font-size="10.00">pair1: MWS</text>
</g>
<!-- 32&#45;&gt;38 -->
<g id="edge78" class="edge">
<title>32&#45;&gt;38</title>
<path fill="none" stroke="grey" stroke-width="2" d="M896.79,-364.82C904.61,-356.36 914.21,-345.97 922.98,-336.48"/>
<polygon fill="grey" stroke="grey" stroke-width="2" points="925.56,-338.84 929.78,-329.12 920.42,-334.09 925.56,-338.84"/>
</g>
<!-- 39 -->
<g id="node40" class="node">
<title>39</title>
<path fill="none" stroke="#d6d856" stroke-width="2" d="M1146.41,-329C1146.41,-329 1093.41,-329 1093.41,-329 1087.41,-329 1081.41,-323 1081.41,-317 1081.41,-317 1081.41,-300 1081.41,-300 1081.41,-294 1087.41,-288 1093.41,-288 1093.41,-288 1146.41,-288 1146.41,-288 1152.41,-288 1158.41,-294 1158.41,-300 1158.41,-300 1158.41,-317 1158.41,-317 1158.41,-323 1152.41,-329 1146.41,-329"/>
<text text-anchor="middle" x="1119.91" y="-317" font-family="sans" font-size="10.00">mix_markup</text>
<text text-anchor="middle" x="1119.91" y="-306" font-family="sans" font-size="10.00">pair0: HOIL</text>
<text text-anchor="middle" x="1119.91" y="-295" font-family="sans" font-size="10.00">pair1: MVK</text>
</g>
<!-- 32&#45;&gt;39 -->
<g id="edge79" class="edge">
<title>32&#45;&gt;39</title>
<path fill="none" stroke="grey" stroke-width="2" d="M913.73,-373.45C951.07,-363.53 1013.76,-346.32 1066.91,-329 1068.51,-328.48 1070.14,-327.94 1071.78,-327.38"/>
<polygon fill="grey" stroke="grey" stroke-width="2" points="1072.94,-330.69 1081.24,-324.11 1070.65,-324.07 1072.94,-330.69"/>
</g>
<!-- 40 -->
<g id="node41" class="node">
<title>40</title>
<path fill="none" stroke="#d6d856" stroke-width="2" d="M1318.91,-329C1318.91,-329 1264.91,-329 1264.91,-329 1258.91,-329 1252.91,-323 1252.91,-317 1252.91,-317 1252.91,-300 1252.91,-300 1252.91,-294 1258.91,-288 1264.91,-288 1264.91,-288 1318.91,-288 1318.91,-288 1324.91,-288 1330.91,-294 1330.91,-300 1330.91,-300 1330.91,-317 1330.91,-317 1330.91,-323 1324.91,-329 1318.91,-329"/>
<text text-anchor="middle" x="1291.91" y="-317" font-family="sans" font-size="10.00">mix_markup</text>
<text text-anchor="middle" x="1291.91" y="-306" font-family="sans" font-size="10.00">pair0: CINCA</text>
<text text-anchor="middle" x="1291.91" y="-295" font-family="sans" font-size="10.00">pair1: MWS</text>
</g>
<!-- 32&#45;&gt;40 -->
<g id="edge80" class="edge">
<title>32&#45;&gt;40</title>
<path fill="none" stroke="grey" stroke-width="2" d="M913.44,-379.44C976.86,-373.95 1121.11,-359.05 1238.91,-329 1240.34,-328.64 1241.78,-328.25 1243.23,-327.84"/>
<polygon fill="grey" stroke="grey" stroke-width="2" points="1244.3,-331.17 1252.83,-324.9 1242.25,-324.48 1244.3,-331.17"/>
</g>
<!-- 41 -->
<g id="node42" class="node">
<title>41</title>
<path fill="none" stroke="#d6d856" stroke-width="2" d="M1490.91,-329C1490.91,-329 1436.91,-329 1436.91,-329 1430.91,-329 1424.91,-323 1424.91,-317 1424.91,-317 1424.91,-300 1424.91,-300 1424.91,-294 1430.91,-288 1436.91,-288 1436.91,-288 1490.91,-288 1490.91,-288 1496.91,-288 1502.91,-294 1502.91,-300 1502.91,-300 1502.91,-317 1502.91,-317 1502.91,-323 1496.91,-329 1490.91,-329"/>
<text text-anchor="middle" x="1463.91" y="-317" font-family="sans" font-size="10.00">mix_markup</text>
<text text-anchor="middle" x="1463.91" y="-306" font-family="sans" font-size="10.00">pair0: CINCA</text>
<text text-anchor="middle" x="1463.91" y="-295" font-family="sans" font-size="10.00">pair1: MVK</text>
</g>
<!-- 32&#45;&gt;41 -->
<g id="edge81" class="edge">
<title>32&#45;&gt;41</title>
<path fill="none" stroke="grey" stroke-width="2" d="M913.64,-381.59C997.44,-379.92 1226.17,-371.5 1410.91,-329 1412.35,-328.67 1413.79,-328.31 1415.25,-327.93"/>
<polygon fill="grey" stroke="grey" stroke-width="2" points="1416.27,-331.28 1424.89,-325.11 1414.31,-324.56 1416.27,-331.28"/>
</g>
<!-- 42 -->
<g id="node43" class="node">
<title>42</title>
<path fill="none" stroke="#d6d856" stroke-width="2" d="M1662.41,-329C1662.41,-329 1609.41,-329 1609.41,-329 1603.41,-329 1597.41,-323 1597.41,-317 1597.41,-317 1597.41,-300 1597.41,-300 1597.41,-294 1603.41,-288 1609.41,-288 1609.41,-288 1662.41,-288 1662.41,-288 1668.41,-288 1674.41,-294 1674.41,-300 1674.41,-300 1674.41,-317 1674.41,-317 1674.41,-323 1668.41,-329 1662.41,-329"/>
<text text-anchor="middle" x="1635.91" y="-317" font-family="sans" font-size="10.00">mix_markup</text>
<text text-anchor="middle" x="1635.91" y="-306" font-family="sans" font-size="10.00">pair0: MWS</text>
<text text-anchor="middle" x="1635.91" y="-295" font-family="sans" font-size="10.00">pair1: MVK</text>
</g>
<!-- 32&#45;&gt;42 -->
<g id="edge82" class="edge">
<title>32&#45;&gt;42</title>
<path fill="none" stroke="grey" stroke-width="2" d="M913.7,-380.73C1034.24,-375.87 1452.58,-357.32 1582.91,-329 1584.38,-328.68 1585.86,-328.33 1587.35,-327.95"/>
<polygon fill="grey" stroke="grey" stroke-width="2" points="1588.55,-331.25 1597.2,-325.13 1586.63,-324.52 1588.55,-331.25"/>
</g>
<!-- 43 -->
<g id="node44" class="node">
<title>43</title>
<path fill="none" stroke="#d89556" stroke-width="2" d="M150.91,-252C150.91,-252 114.91,-252 114.91,-252 108.91,-252 102.91,-246 102.91,-240 102.91,-240 102.91,-228 102.91,-228 102.91,-222 108.91,-216 114.91,-216 114.91,-216 150.91,-216 150.91,-216 156.91,-216 162.91,-222 162.91,-228 162.91,-228 162.91,-240 162.91,-240 162.91,-246 156.91,-252 150.91,-252"/>
<text text-anchor="middle" x="132.91" y="-231.5" font-family="sans" font-size="10.00">calc_stat</text>
</g>
<!-- 32&#45;&gt;43 -->
<g id="edge83" class="edge">
<title>32&#45;&gt;43</title>
<path fill="none" stroke="grey" stroke-width="2" d="M848.1,-381.47C716.53,-379.1 231.56,-367.76 175.91,-329 153.89,-313.66 142.93,-284.17 137.61,-262.29"/>
<polygon fill="grey" stroke="grey" stroke-width="2" points="140.98,-261.29 135.44,-252.26 134.14,-262.78 140.98,-261.29"/>
</g>
<!-- 44 -->
<g id="node45" class="node">
<title>44</title>
<path fill="none" stroke="#d89556" stroke-width="2" d="M330.91,-252C330.91,-252 294.91,-252 294.91,-252 288.91,-252 282.91,-246 282.91,-240 282.91,-240 282.91,-228 282.91,-228 282.91,-222 288.91,-216 294.91,-216 294.91,-216 330.91,-216 330.91,-216 336.91,-216 342.91,-222 342.91,-228 342.91,-228 342.91,-240 342.91,-240 342.91,-246 336.91,-252 330.91,-252"/>
<text text-anchor="middle" x="312.91" y="-231.5" font-family="sans" font-size="10.00">calc_stat</text>
</g>
<!-- 32&#45;&gt;44 -->
<g id="edge85" class="edge">
<title>32&#45;&gt;44</title>
<path fill="none" stroke="grey" stroke-width="2" d="M848.29,-380.58C739.84,-375.6 396,-357.69 355.91,-329 334.09,-313.38 323.09,-283.94 317.72,-262.15"/>
<polygon fill="grey" stroke="grey" stroke-width="2" points="321.08,-261.17 315.51,-252.16 314.25,-262.68 321.08,-261.17"/>
</g>
<!-- 45 -->
<g id="node46" class="node">
<title>45</title>
<path fill="none" stroke="#d89556" stroke-width="2" d="M509.91,-252C509.91,-252 473.91,-252 473.91,-252 467.91,-252 461.91,-246 461.91,-240 461.91,-240 461.91,-228 461.91,-228 461.91,-222 467.91,-216 473.91,-216 473.91,-216 509.91,-216 509.91,-216 515.91,-216 521.91,-222 521.91,-228 521.91,-228 521.91,-240 521.91,-240 521.91,-246 515.91,-252 509.91,-252"/>
<text text-anchor="middle" x="491.91" y="-231.5" font-family="sans" font-size="10.00">calc_stat</text>
</g>
<!-- 32&#45;&gt;45 -->
<g id="edge87" class="edge">
<title>32&#45;&gt;45</title>
<path fill="none" stroke="grey" stroke-width="2" d="M848.16,-380.83C771.85,-377.5 584.97,-365.73 535.91,-329 514.47,-312.94 503.09,-283.83 497.32,-262.25"/>
<polygon fill="grey" stroke="grey" stroke-width="2" points="500.68,-261.24 494.92,-252.34 493.88,-262.89 500.68,-261.24"/>
</g>
<!-- 46 -->
<g id="node47" class="node">
<title>46</title>
<path fill="none" stroke="#d89556" stroke-width="2" d="M683.91,-252C683.91,-252 647.91,-252 647.91,-252 641.91,-252 635.91,-246 635.91,-240 635.91,-240 635.91,-228 635.91,-228 635.91,-222 641.91,-216 647.91,-216 647.91,-216 683.91,-216 683.91,-216 689.91,-216 695.91,-222 695.91,-228 695.91,-228 695.91,-240 695.91,-240 695.91,-246 689.91,-252 683.91,-252"/>
<text text-anchor="middle" x="665.91" y="-231.5" font-family="sans" font-size="10.00">calc_stat</text>
</g>
<!-- 32&#45;&gt;46 -->
<g id="edge89" class="edge">
<title>32&#45;&gt;46</title>
<path fill="none" stroke="grey" stroke-width="2" d="M848.28,-378.83C812.23,-373.81 754.23,-361.04 715.91,-329 694.95,-311.47 681.53,-282.85 673.92,-261.78"/>
<polygon fill="grey" stroke="grey" stroke-width="2" points="677.18,-260.48 670.65,-252.13 670.55,-262.73 677.18,-260.48"/>
</g>
<!-- 47 -->
<g id="node48" class="node">
<title>47</title>
<path fill="none" stroke="#d89556" stroke-width="2" d="M839.91,-252C839.91,-252 803.91,-252 803.91,-252 797.91,-252 791.91,-246 791.91,-240 791.91,-240 791.91,-228 791.91,-228 791.91,-222 797.91,-216 803.91,-216 803.91,-216 839.91,-216 839.91,-216 845.91,-216 851.91,-222 851.91,-228 851.91,-228 851.91,-240 851.91,-240 851.91,-246 845.91,-252 839.91,-252"/>
<text text-anchor="middle" x="821.91" y="-231.5" font-family="sans" font-size="10.00">calc_stat</text>
</g>
<!-- 32&#45;&gt;47 -->
<g id="edge91" class="edge">
<title>32&#45;&gt;47</title>
<path fill="none" stroke="grey" stroke-width="2" d="M874.03,-364.85C863.82,-339.4 844.56,-291.43 832.53,-261.46"/>
<polygon fill="grey" stroke="grey" stroke-width="2" points="835.73,-260.02 828.75,-252.04 829.23,-262.63 835.73,-260.02"/>
</g>
<!-- 48 -->
<g id="node49" class="node">
<title>48</title>
<path fill="none" stroke="#d89556" stroke-width="2" d="M995.91,-252C995.91,-252 959.91,-252 959.91,-252 953.91,-252 947.91,-246 947.91,-240 947.91,-240 947.91,-228 947.91,-228 947.91,-222 953.91,-216 959.91,-216 959.91,-216 995.91,-216 995.91,-216 1001.91,-216 1007.91,-222 1007.91,-228 1007.91,-228 1007.91,-240 1007.91,-240 1007.91,-246 1001.91,-252 995.91,-252"/>
<text text-anchor="middle" x="977.91" y="-231.5" font-family="sans" font-size="10.00">calc_stat</text>
</g>
<!-- 32&#45;&gt;48 -->
<g id="edge93" class="edge">
<title>32&#45;&gt;48</title>
<path fill="none" stroke="grey" stroke-width="2" d="M913.51,-376.8C940.73,-370.55 977.9,-357.14 995.91,-329 1008.85,-308.8 1001.47,-281.48 992.57,-261.51"/>
<polygon fill="grey" stroke="grey" stroke-width="2" points="995.66,-259.84 988.17,-252.35 989.35,-262.88 995.66,-259.84"/>
</g>
<!-- 49 -->
<g id="node50" class="node">
<title>49</title>
<path fill="none" stroke="#d89556" stroke-width="2" d="M1166.91,-252C1166.91,-252 1130.91,-252 1130.91,-252 1124.91,-252 1118.91,-246 1118.91,-240 1118.91,-240 1118.91,-228 1118.91,-228 1118.91,-222 1124.91,-216 1130.91,-216 1130.91,-216 1166.91,-216 1166.91,-216 1172.91,-216 1178.91,-222 1178.91,-228 1178.91,-228 1178.91,-240 1178.91,-240 1178.91,-246 1172.91,-252 1166.91,-252"/>
<text text-anchor="middle" x="1148.91" y="-231.5" font-family="sans" font-size="10.00">calc_stat</text>
</g>
<!-- 32&#45;&gt;49 -->
<g id="edge95" class="edge">
<title>32&#45;&gt;49</title>
<path fill="none" stroke="grey" stroke-width="2" d="M913.49,-381.01C981.69,-378.18 1135.82,-367.56 1167.91,-329 1183.61,-310.13 1174.93,-281.82 1164.74,-261.2"/>
<polygon fill="grey" stroke="grey" stroke-width="2" points="1167.81,-259.53 1160.03,-252.33 1161.63,-262.81 1167.81,-259.53"/>
</g>
<!-- 50 -->
<g id="node51" class="node">
<title>50</title>
<path fill="none" stroke="#d89556" stroke-width="2" d="M1320.91,-252C1320.91,-252 1284.91,-252 1284.91,-252 1278.91,-252 1272.91,-246 1272.91,-240 1272.91,-240 1272.91,-228 1272.91,-228 1272.91,-222 1278.91,-216 1284.91,-216 1284.91,-216 1320.91,-216 1320.91,-216 1326.91,-216 1332.91,-222 1332.91,-228 1332.91,-228 1332.91,-240 1332.91,-240 1332.91,-246 1326.91,-252 1320.91,-252"/>
<text text-anchor="middle" x="1302.91" y="-231.5" font-family="sans" font-size="10.00">calc_stat</text>
</g>
<!-- 32&#45;&gt;50 -->
<g id="edge97" class="edge">
<title>32&#45;&gt;50</title>
<path fill="none" stroke="grey" stroke-width="2" d="M913.71,-380.68C1014.01,-376.33 1311.56,-360.81 1339.91,-329 1357.35,-309.44 1341.83,-280.69 1325.88,-260.14"/>
<polygon fill="grey" stroke="grey" stroke-width="2" points="1328.39,-257.68 1319.35,-252.16 1322.97,-262.12 1328.39,-257.68"/>
</g>
<!-- 51 -->
<g id="node52" class="node">
<title>51</title>
<path fill="none" stroke="#d89556" stroke-width="2" d="M1485.91,-252C1485.91,-252 1449.91,-252 1449.91,-252 1443.91,-252 1437.91,-246 1437.91,-240 1437.91,-240 1437.91,-228 1437.91,-228 1437.91,-222 1443.91,-216 1449.91,-216 1449.91,-216 1485.91,-216 1485.91,-216 1491.91,-216 1497.91,-222 1497.91,-228 1497.91,-228 1497.91,-240 1497.91,-240 1497.91,-246 1491.91,-252 1485.91,-252"/>
<text text-anchor="middle" x="1467.91" y="-231.5" font-family="sans" font-size="10.00">calc_stat</text>
</g>
<!-- 32&#45;&gt;51 -->
<g id="edge99" class="edge">
<title>32&#45;&gt;51</title>
<path fill="none" stroke="grey" stroke-width="2" d="M913.67,-381.78C1037.36,-380.61 1471.13,-373.36 1511.91,-329 1530.3,-309.01 1511.78,-279.97 1493.44,-259.47"/>
<polygon fill="grey" stroke="grey" stroke-width="2" points="1495.89,-256.96 1486.49,-252.06 1490.78,-261.75 1495.89,-256.96"/>
</g>
<!-- 52 -->
<g id="node53" class="node">
<title>52</title>
<path fill="none" stroke="#d89556" stroke-width="2" d="M1657.91,-252C1657.91,-252 1621.91,-252 1621.91,-252 1615.91,-252 1609.91,-246 1609.91,-240 1609.91,-240 1609.91,-228 1609.91,-228 1609.91,-222 1615.91,-216 1621.91,-216 1621.91,-216 1657.91,-216 1657.91,-216 1663.91,-216 1669.91,-222 1669.91,-228 1669.91,-228 1669.91,-240 1669.91,-240 1669.91,-246 1663.91,-252 1657.91,-252"/>
<text text-anchor="middle" x="1639.91" y="-231.5" font-family="sans" font-size="10.00">calc_stat</text>
</g>
<!-- 32&#45;&gt;52 -->
<g id="edge101" class="edge">
<title>32&#45;&gt;52</title>
<path fill="none" stroke="grey" stroke-width="2" d="M913.87,-382.41C1058.31,-383.87 1630.56,-385.99 1683.91,-329 1702.48,-309.17 1683.92,-280.1 1665.53,-259.55"/>
<polygon fill="grey" stroke="grey" stroke-width="2" points="1667.96,-257.02 1658.56,-252.13 1662.85,-261.81 1667.96,-257.02"/>
</g>
<!-- 33&#45;&gt;1 -->
<g id="edge33" class="edge">
<title>33&#45;&gt;1</title>
<path fill="none" stroke="grey" stroke-width="2" d="M59.37,-287.69C59.15,-279.91 58.9,-270.84 58.67,-262.45"/>
<polygon fill="grey" stroke="grey" stroke-width="2" points="62.16,-262.22 58.39,-252.32 55.17,-262.41 62.16,-262.22"/>
</g>
<!-- 33&#45;&gt;43 -->
<g id="edge84" class="edge">
<title>33&#45;&gt;43</title>
<path fill="none" stroke="grey" stroke-width="2" d="M79.86,-287.69C88.65,-278.96 99.07,-268.61 108.34,-259.4"/>
<polygon fill="grey" stroke="grey" stroke-width="2" points="110.84,-261.85 115.47,-252.32 105.91,-256.88 110.84,-261.85"/>
</g>
<!-- 34&#45;&gt;2 -->
<g id="edge35" class="edge">
<title>34&#45;&gt;2</title>
<path fill="none" stroke="grey" stroke-width="2" d="M239.37,-287.69C239.15,-279.91 238.9,-270.84 238.67,-262.45"/>
<polygon fill="grey" stroke="grey" stroke-width="2" points="242.16,-262.22 238.39,-252.32 235.17,-262.41 242.16,-262.22"/>
</g>
<!-- 34&#45;&gt;44 -->
<g id="edge86" class="edge">
<title>34&#45;&gt;44</title>
<path fill="none" stroke="grey" stroke-width="2" d="M259.86,-287.69C268.65,-278.96 279.07,-268.61 288.34,-259.4"/>
<polygon fill="grey" stroke="grey" stroke-width="2" points="290.84,-261.85 295.47,-252.32 285.91,-256.88 290.84,-261.85"/>
</g>
<!-- 35&#45;&gt;3 -->
<g id="edge37" class="edge">
<title>35&#45;&gt;3</title>
<path fill="none" stroke="grey" stroke-width="2" d="M419.09,-287.69C418.77,-279.91 418.4,-270.84 418.05,-262.45"/>
<polygon fill="grey" stroke="grey" stroke-width="2" points="421.54,-262.17 417.63,-252.32 414.55,-262.46 421.54,-262.17"/>
</g>
<!-- 35&#45;&gt;45 -->
<g id="edge88" class="edge">
<title>35&#45;&gt;45</title>
<path fill="none" stroke="grey" stroke-width="2" d="M439.59,-287.69C448.17,-279.04 458.33,-268.81 467.41,-259.68"/>
<polygon fill="grey" stroke="grey" stroke-width="2" points="470.15,-261.88 474.71,-252.32 465.18,-256.95 470.15,-261.88"/>
</g>
<!-- 36&#45;&gt;4 -->
<g id="edge39" class="edge">
<title>36&#45;&gt;4</title>
<path fill="none" stroke="grey" stroke-width="2" d="M596.63,-287.69C595.35,-279.91 593.85,-270.84 592.46,-262.45"/>
<polygon fill="grey" stroke="grey" stroke-width="2" points="595.87,-261.61 590.78,-252.32 588.96,-262.76 595.87,-261.61"/>
</g>
<!-- 36&#45;&gt;46 -->
<g id="edge90" class="edge">
<title>36&#45;&gt;46</title>
<path fill="none" stroke="grey" stroke-width="2" d="M617.95,-287.69C625.74,-279.13 634.95,-269.02 643.2,-259.95"/>
<polygon fill="grey" stroke="grey" stroke-width="2" points="646,-262.07 650.15,-252.32 640.83,-257.36 646,-262.07"/>
</g>
<!-- 37&#45;&gt;5 -->
<g id="edge41" class="edge">
<title>37&#45;&gt;5</title>
<path fill="none" stroke="grey" stroke-width="2" d="M767.17,-287.69C763.62,-279.65 759.47,-270.24 755.66,-261.61"/>
<polygon fill="grey" stroke="grey" stroke-width="2" points="758.8,-260.05 751.56,-252.32 752.39,-262.88 758.8,-260.05"/>
</g>
<!-- 37&#45;&gt;47 -->
<g id="edge92" class="edge">
<title>37&#45;&gt;47</title>
<path fill="none" stroke="grey" stroke-width="2" d="M788.48,-287.69C793.75,-279.39 799.94,-269.63 805.56,-260.78"/>
<polygon fill="grey" stroke="grey" stroke-width="2" points="808.52,-262.64 810.92,-252.32 802.61,-258.89 808.52,-262.64"/>
</g>
<!-- 38&#45;&gt;6 -->
<g id="edge43" class="edge">
<title>38&#45;&gt;6</title>
<path fill="none" stroke="grey" stroke-width="2" d="M934.8,-287.69C929.3,-279.39 922.84,-269.63 916.98,-260.78"/>
<polygon fill="grey" stroke="grey" stroke-width="2" points="919.82,-258.73 911.38,-252.32 913.98,-262.59 919.82,-258.73"/>
</g>
<!-- 38&#45;&gt;48 -->
<g id="edge94" class="edge">
<title>38&#45;&gt;48</title>
<path fill="none" stroke="grey" stroke-width="2" d="M956.11,-287.69C959.44,-279.65 963.33,-270.24 966.9,-261.61"/>
<polygon fill="grey" stroke="grey" stroke-width="2" points="970.16,-262.9 970.75,-252.32 963.69,-260.22 970.16,-262.9"/>
</g>
<!-- 39&#45;&gt;7 -->
<g id="edge45" class="edge">
<title>39&#45;&gt;7</title>
<path fill="none" stroke="grey" stroke-width="2" d="M1102.42,-287.69C1094.87,-279.13 1085.94,-269.02 1077.94,-259.95"/>
<polygon fill="grey" stroke="grey" stroke-width="2" points="1080.44,-257.5 1071.2,-252.32 1075.2,-262.13 1080.44,-257.5"/>
</g>
<!-- 39&#45;&gt;49 -->
<g id="edge96" class="edge">
<title>39&#45;&gt;49</title>
<path fill="none" stroke="grey" stroke-width="2" d="M1127.84,-287.69C1131.05,-279.65 1134.82,-270.24 1138.27,-261.61"/>
<polygon fill="grey" stroke="grey" stroke-width="2" points="1141.52,-262.9 1141.98,-252.32 1135.02,-260.3 1141.52,-262.9"/>
</g>
<!-- 40&#45;&gt;8 -->
<g id="edge47" class="edge">
<title>40&#45;&gt;8</title>
<path fill="none" stroke="grey" stroke-width="2" d="M1273.6,-287.69C1265.61,-279.04 1256.16,-268.81 1247.72,-259.68"/>
<polygon fill="grey" stroke="grey" stroke-width="2" points="1250.28,-257.29 1240.92,-252.32 1245.13,-262.04 1250.28,-257.29"/>
</g>
<!-- 40&#45;&gt;50 -->
<g id="edge98" class="edge">
<title>40&#45;&gt;50</title>
<path fill="none" stroke="grey" stroke-width="2" d="M1294.92,-287.69C1296.1,-279.91 1297.47,-270.84 1298.75,-262.45"/>
<polygon fill="grey" stroke="grey" stroke-width="2" points="1302.25,-262.73 1300.28,-252.32 1295.32,-261.68 1302.25,-262.73"/>
</g>
<!-- 41&#45;&gt;9 -->
<g id="edge49" class="edge">
<title>41&#45;&gt;9</title>
<path fill="none" stroke="grey" stroke-width="2" d="M1444.51,-287.69C1436.04,-279.04 1426.02,-268.81 1417.08,-259.68"/>
<polygon fill="grey" stroke="grey" stroke-width="2" points="1419.37,-257.02 1409.87,-252.32 1414.37,-261.91 1419.37,-257.02"/>
</g>
<!-- 41&#45;&gt;51 -->
<g id="edge100" class="edge">
<title>41&#45;&gt;51</title>
<path fill="none" stroke="grey" stroke-width="2" d="M1465.01,-287.69C1465.44,-279.91 1465.94,-270.84 1466.4,-262.45"/>
<polygon fill="grey" stroke="grey" stroke-width="2" points="1469.9,-262.5 1466.96,-252.32 1462.91,-262.11 1469.9,-262.5"/>
</g>
<!-- 42&#45;&gt;10 -->
<g id="edge51" class="edge">
<title>42&#45;&gt;10</title>
<path fill="none" stroke="grey" stroke-width="2" d="M1616.51,-287.69C1608.04,-279.04 1598.02,-268.81 1589.08,-259.68"/>
<polygon fill="grey" stroke="grey" stroke-width="2" points="1591.37,-257.02 1581.87,-252.32 1586.37,-261.91 1591.37,-257.02"/>
</g>
<!-- 42&#45;&gt;52 -->
<g id="edge102" class="edge">
<title>42&#45;&gt;52</title>
<path fill="none" stroke="grey" stroke-width="2" d="M1637.01,-287.69C1637.44,-279.91 1637.94,-270.84 1638.4,-262.45"/>
<polygon fill="grey" stroke="grey" stroke-width="2" points="1641.9,-262.5 1638.96,-252.32 1634.91,-262.11 1641.9,-262.5"/>
</g>
<!-- 43&#45;&gt;11 -->
<g id="edge52" class="edge">
<title>43&#45;&gt;11</title>
<path fill="none" stroke="grey" stroke-width="2" d="M141.32,-215.7C145.19,-207.73 149.86,-198.1 154.16,-189.26"/>
<polygon fill="grey" stroke="grey" stroke-width="2" points="157.38,-190.63 158.6,-180.1 151.09,-187.57 157.38,-190.63"/>
</g>
<!-- 44&#45;&gt;12 -->
<g id="edge53" class="edge">
<title>44&#45;&gt;12</title>
<path fill="none" stroke="grey" stroke-width="2" d="M316.13,-215.7C317.56,-207.98 319.28,-198.71 320.88,-190.11"/>
<polygon fill="grey" stroke="grey" stroke-width="2" points="324.35,-190.58 322.74,-180.1 317.47,-189.3 324.35,-190.58"/>
</g>
<!-- 45&#45;&gt;13 -->
<g id="edge54" class="edge">
<title>45&#45;&gt;13</title>
<path fill="none" stroke="grey" stroke-width="2" d="M492.41,-215.7C492.63,-207.98 492.89,-198.71 493.14,-190.11"/>
<polygon fill="grey" stroke="grey" stroke-width="2" points="496.64,-190.2 493.42,-180.1 489.64,-190 496.64,-190.2"/>
</g>
<!-- 46&#45;&gt;14 -->
<g id="edge55" class="edge">
<title>46&#45;&gt;14</title>
<path fill="none" stroke="grey" stroke-width="2" d="M665.91,-215.7C665.91,-207.98 665.91,-198.71 665.91,-190.11"/>
<polygon fill="grey" stroke="grey" stroke-width="2" points="669.41,-190.1 665.91,-180.1 662.41,-190.1 669.41,-190.1"/>
</g>
<!-- 47&#45;&gt;15 -->
<g id="edge56" class="edge">
<title>47&#45;&gt;15</title>
<path fill="none" stroke="grey" stroke-width="2" d="M821.91,-215.7C821.91,-207.98 821.91,-198.71 821.91,-190.11"/>
<polygon fill="grey" stroke="grey" stroke-width="2" points="825.41,-190.1 821.91,-180.1 818.41,-190.1 825.41,-190.1"/>
</g>
<!-- 48&#45;&gt;16 -->
<g id="edge57" class="edge">
<title>48&#45;&gt;16</title>
<path fill="none" stroke="grey" stroke-width="2" d="M977.91,-215.7C977.91,-207.98 977.91,-198.71 977.91,-190.11"/>
<polygon fill="grey" stroke="grey" stroke-width="2" points="981.41,-190.1 977.91,-180.1 974.41,-190.1 981.41,-190.1"/>
</g>
<!-- 49&#45;&gt;17 -->
<g id="edge58" class="edge">
<title>49&#45;&gt;17</title>
<path fill="none" stroke="grey" stroke-width="2" d="M1148.91,-215.7C1148.91,-207.98 1148.91,-198.71 1148.91,-190.11"/>
<polygon fill="grey" stroke="grey" stroke-width="2" points="1152.41,-190.1 1148.91,-180.1 1145.41,-190.1 1152.41,-190.1"/>
</g>
<!-- 50&#45;&gt;18 -->
<g id="edge59" class="edge">
<title>50&#45;&gt;18</title>
<path fill="none" stroke="grey" stroke-width="2" d="M1302.91,-215.7C1302.91,-207.98 1302.91,-198.71 1302.91,-190.11"/>
<polygon fill="grey" stroke="grey" stroke-width="2" points="1306.41,-190.1 1302.91,-180.1 1299.41,-190.1 1306.41,-190.1"/>
</g>
<!-- 51&#45;&gt;19 -->
<g id="edge60" class="edge">
<title>51&#45;&gt;19</title>
<path fill="none" stroke="grey" stroke-width="2" d="M1467.67,-215.7C1467.56,-207.98 1467.42,-198.71 1467.3,-190.11"/>
<polygon fill="grey" stroke="grey" stroke-width="2" points="1470.8,-190.05 1467.16,-180.1 1463.8,-190.15 1470.8,-190.05"/>
</g>
<!-- 52&#45;&gt;20 -->
<g id="edge61" class="edge">
<title>52&#45;&gt;20</title>
<path fill="none" stroke="grey" stroke-width="2" d="M1636.45,-215.7C1634.91,-207.98 1633.06,-198.71 1631.34,-190.11"/>
<polygon fill="grey" stroke="grey" stroke-width="2" points="1634.73,-189.22 1629.33,-180.1 1627.86,-190.6 1634.73,-189.22"/>
</g>
</g>
</svg>
