<?xml version="1.0" encoding="UTF-8" standalone="no"?>
<!DOCTYPE svg PUBLIC "-//W3C//DTD SVG 1.1//EN"
 "http://www.w3.org/Graphics/SVG/1.1/DTD/svg11.dtd">
<!-- Generated by graphviz version 2.43.0 (0)
 -->
<!-- Title: snakemake_dag Pages: 1 -->
<svg width="1813pt" height="265pt"
 viewBox="0.00 0.00 1812.91 265.00" xmlns="http://www.w3.org/2000/svg" xmlns:xlink="http://www.w3.org/1999/xlink">
<g id="graph0" class="graph" transform="scale(1 1) rotate(0) translate(4 261)">
<title>snakemake_dag</title>
<polygon fill="white" stroke="transparent" points="-4,4 -4,-261 1808.91,-261 1808.91,4 -4,4"/>
<!-- 0 -->
<g id="node1" class="node">
<title>0</title>
<path fill="none" stroke="#59d856" stroke-width="2" stroke-dasharray="5,2" d="M917.91,-36C917.91,-36 887.91,-36 887.91,-36 881.91,-36 875.91,-30 875.91,-24 875.91,-24 875.91,-12 875.91,-12 875.91,-6 881.91,0 887.91,0 887.91,0 917.91,0 917.91,0 923.91,0 929.91,-6 929.91,-12 929.91,-12 929.91,-24 929.91,-24 929.91,-30 923.91,-36 917.91,-36"/>
<text text-anchor="middle" x="902.91" y="-15.5" font-family="sans" font-size="10.00">all</text>
</g>
<!-- 1 -->
<g id="node2" class="node">
<title>1</title>
<path fill="none" stroke="#d8ac56" stroke-width="2" stroke-dasharray="5,2" d="M75.91,-108C75.91,-108 39.91,-108 39.91,-108 33.91,-108 27.91,-102 27.91,-96 27.91,-96 27.91,-84 27.91,-84 27.91,-78 33.91,-72 39.91,-72 39.91,-72 75.91,-72 75.91,-72 81.91,-72 87.91,-78 87.91,-84 87.91,-84 87.91,-96 87.91,-96 87.91,-102 81.91,-108 75.91,-108"/>
<text text-anchor="middle" x="57.91" y="-87.5" font-family="sans" font-size="10.00">calc_stat</text>
</g>
<!-- 1&#45;&gt;0 -->
<g id="edge1" class="edge">
<title>1&#45;&gt;0</title>
<path fill="none" stroke="grey" stroke-width="2" d="M88.22,-74.61C91.12,-73.59 94.04,-72.7 96.91,-72 245.82,-35.82 727.94,-22.79 865.78,-19.75"/>
<polygon fill="grey" stroke="grey" stroke-width="2" points="865.92,-23.25 875.85,-19.53 865.77,-16.25 865.92,-23.25"/>
</g>
<!-- 2 -->
<g id="node3" class="node">
<title>2</title>
<path fill="none" stroke="#d8ac56" stroke-width="2" stroke-dasharray="5,2" d="M255.91,-108C255.91,-108 219.91,-108 219.91,-108 213.91,-108 207.91,-102 207.91,-96 207.91,-96 207.91,-84 207.91,-84 207.91,-78 213.91,-72 219.91,-72 219.91,-72 255.91,-72 255.91,-72 261.91,-72 267.91,-78 267.91,-84 267.91,-84 267.91,-96 267.91,-96 267.91,-102 261.91,-108 255.91,-108"/>
<text text-anchor="middle" x="237.91" y="-87.5" font-family="sans" font-size="10.00">calc_stat</text>
</g>
<!-- 2&#45;&gt;0 -->
<g id="edge2" class="edge">
<title>2&#45;&gt;0</title>
<path fill="none" stroke="grey" stroke-width="2" d="M268.24,-74.66C271.13,-73.64 274.05,-72.72 276.91,-72 389.58,-43.5 748.44,-25.72 865.55,-20.57"/>
<polygon fill="grey" stroke="grey" stroke-width="2" points="865.96,-24.05 875.8,-20.12 865.66,-17.06 865.96,-24.05"/>
</g>
<!-- 3 -->
<g id="node4" class="node">
<title>3</title>
<path fill="none" stroke="#d8ac56" stroke-width="2" stroke-dasharray="5,2" d="M435.91,-108C435.91,-108 399.91,-108 399.91,-108 393.91,-108 387.91,-102 387.91,-96 387.91,-96 387.91,-84 387.91,-84 387.91,-78 393.91,-72 399.91,-72 399.91,-72 435.91,-72 435.91,-72 441.91,-72 447.91,-78 447.91,-84 447.91,-84 447.91,-96 447.91,-96 447.91,-102 441.91,-108 435.91,-108"/>
<text text-anchor="middle" x="417.91" y="-87.5" font-family="sans" font-size="10.00">calc_stat</text>
</g>
<!-- 3&#45;&gt;0 -->
<g id="edge3" class="edge">
<title>3&#45;&gt;0</title>
<path fill="none" stroke="grey" stroke-width="2" d="M448.26,-74.77C451.15,-73.72 454.06,-72.77 456.91,-72 604.62,-31.97 788,-22.17 865.53,-19.77"/>
<polygon fill="grey" stroke="grey" stroke-width="2" points="865.85,-23.26 875.75,-19.48 865.65,-16.27 865.85,-23.26"/>
</g>
<!-- 4 -->
<g id="node5" class="node">
<title>4</title>
<path fill="none" stroke="#d8ac56" stroke-width="2" stroke-dasharray="5,2" d="M615.91,-108C615.91,-108 579.91,-108 579.91,-108 573.91,-108 567.91,-102 567.91,-96 567.91,-96 567.91,-84 567.91,-84 567.91,-78 573.91,-72 579.91,-72 579.91,-72 615.91,-72 615.91,-72 621.91,-72 627.91,-78 627.91,-84 627.91,-84 627.91,-96 627.91,-96 627.91,-102 621.91,-108 615.91,-108"/>
<text text-anchor="middle" x="597.91" y="-87.5" font-family="sans" font-size="10.00">calc_stat</text>
</g>
<!-- 4&#45;&gt;0 -->
<g id="edge4" class="edge">
<title>4&#45;&gt;0</title>
<path fill="none" stroke="grey" stroke-width="2" d="M628.33,-75C631.2,-73.91 634.09,-72.88 636.91,-72 716.57,-47.02 813.47,-31.22 865.53,-23.87"/>
<polygon fill="grey" stroke="grey" stroke-width="2" points="866.2,-27.31 875.63,-22.47 865.24,-20.37 866.2,-27.31"/>
</g>
<!-- 5 -->
<g id="node6" class="node">
<title>5</title>
<path fill="none" stroke="#d8ac56" stroke-width="2" stroke-dasharray="5,2" d="M770.91,-108C770.91,-108 734.91,-108 734.91,-108 728.91,-108 722.91,-102 722.91,-96 722.91,-96 722.91,-84 722.91,-84 722.91,-78 728.91,-72 734.91,-72 734.91,-72 770.91,-72 770.91,-72 776.91,-72 782.91,-78 782.91,-84 782.91,-84 782.91,-96 782.91,-96 782.91,-102 776.91,-108 770.91,-108"/>
<text text-anchor="middle" x="752.91" y="-87.5" font-family="sans" font-size="10.00">calc_stat</text>
</g>
<!-- 5&#45;&gt;0 -->
<g id="edge5" class="edge">
<title>5&#45;&gt;0</title>
<path fill="none" stroke="grey" stroke-width="2" d="M783.27,-74.83C807.25,-63.64 840.82,-47.98 866.3,-36.09"/>
<polygon fill="grey" stroke="grey" stroke-width="2" points="868.05,-39.13 875.63,-31.73 865.09,-32.79 868.05,-39.13"/>
</g>
<!-- 6 -->
<g id="node7" class="node">
<title>6</title>
<path fill="none" stroke="#d8ac56" stroke-width="2" stroke-dasharray="5,2" d="M920.91,-108C920.91,-108 884.91,-108 884.91,-108 878.91,-108 872.91,-102 872.91,-96 872.91,-96 872.91,-84 872.91,-84 872.91,-78 878.91,-72 884.91,-72 884.91,-72 920.91,-72 920.91,-72 926.91,-72 932.91,-78 932.91,-84 932.91,-84 932.91,-96 932.91,-96 932.91,-102 926.91,-108 920.91,-108"/>
<text text-anchor="middle" x="902.91" y="-87.5" font-family="sans" font-size="10.00">calc_stat</text>
</g>
<!-- 6&#45;&gt;0 -->
<g id="edge6" class="edge">
<title>6&#45;&gt;0</title>
<path fill="none" stroke="grey" stroke-width="2" d="M902.91,-71.7C902.91,-63.98 902.91,-54.71 902.91,-46.11"/>
<polygon fill="grey" stroke="grey" stroke-width="2" points="906.41,-46.1 902.91,-36.1 899.41,-46.1 906.41,-46.1"/>
</g>
<!-- 7 -->
<g id="node8" class="node">
<title>7</title>
<path fill="none" stroke="#d8ac56" stroke-width="2" stroke-dasharray="5,2" d="M1070.91,-108C1070.91,-108 1034.91,-108 1034.91,-108 1028.91,-108 1022.91,-102 1022.91,-96 1022.91,-96 1022.91,-84 1022.91,-84 1022.91,-78 1028.91,-72 1034.91,-72 1034.91,-72 1070.91,-72 1070.91,-72 1076.91,-72 1082.91,-78 1082.91,-84 1082.91,-84 1082.91,-96 1082.91,-96 1082.91,-102 1076.91,-108 1070.91,-108"/>
<text text-anchor="middle" x="1052.91" y="-87.5" font-family="sans" font-size="10.00">calc_stat</text>
</g>
<!-- 7&#45;&gt;0 -->
<g id="edge7" class="edge">
<title>7&#45;&gt;0</title>
<path fill="none" stroke="grey" stroke-width="2" d="M1022.56,-74.83C998.57,-63.64 965,-47.98 939.53,-36.09"/>
<polygon fill="grey" stroke="grey" stroke-width="2" points="940.74,-32.79 930.2,-31.73 937.78,-39.13 940.74,-32.79"/>
</g>
<!-- 8 -->
<g id="node9" class="node">
<title>8</title>
<path fill="none" stroke="#d8ac56" stroke-width="2" stroke-dasharray="5,2" d="M1238.91,-108C1238.91,-108 1202.91,-108 1202.91,-108 1196.91,-108 1190.91,-102 1190.91,-96 1190.91,-96 1190.91,-84 1190.91,-84 1190.91,-78 1196.91,-72 1202.91,-72 1202.91,-72 1238.91,-72 1238.91,-72 1244.91,-72 1250.91,-78 1250.91,-84 1250.91,-84 1250.91,-96 1250.91,-96 1250.91,-102 1244.91,-108 1238.91,-108"/>
<text text-anchor="middle" x="1220.91" y="-87.5" font-family="sans" font-size="10.00">calc_stat</text>
</g>
<!-- 8&#45;&gt;0 -->
<g id="edge8" class="edge">
<title>8&#45;&gt;0</title>
<path fill="none" stroke="grey" stroke-width="2" d="M1190.88,-79.49C1182.22,-76.9 1172.73,-74.21 1163.91,-72 1084.81,-52.21 990.83,-34.54 940.02,-25.45"/>
<polygon fill="grey" stroke="grey" stroke-width="2" points="940.6,-22 930.15,-23.7 939.38,-28.9 940.6,-22"/>
</g>
<!-- 9 -->
<g id="node10" class="node">
<title>9</title>
<path fill="none" stroke="#d8ac56" stroke-width="2" stroke-dasharray="5,2" d="M1410.91,-108C1410.91,-108 1374.91,-108 1374.91,-108 1368.91,-108 1362.91,-102 1362.91,-96 1362.91,-96 1362.91,-84 1362.91,-84 1362.91,-78 1368.91,-72 1374.91,-72 1374.91,-72 1410.91,-72 1410.91,-72 1416.91,-72 1422.91,-78 1422.91,-84 1422.91,-84 1422.91,-96 1422.91,-96 1422.91,-102 1416.91,-108 1410.91,-108"/>
<text text-anchor="middle" x="1392.91" y="-87.5" font-family="sans" font-size="10.00">calc_stat</text>
</g>
<!-- 9&#45;&gt;0 -->
<g id="edge9" class="edge">
<title>9&#45;&gt;0</title>
<path fill="none" stroke="grey" stroke-width="2" d="M1362.72,-79.63C1352.96,-76.86 1342.05,-74.03 1331.91,-72 1188.83,-43.39 1015.62,-27.67 940.58,-21.76"/>
<polygon fill="grey" stroke="grey" stroke-width="2" points="940.48,-18.24 930.24,-20.96 939.94,-25.22 940.48,-18.24"/>
</g>
<!-- 10 -->
<g id="node11" class="node">
<title>10</title>
<path fill="none" stroke="#d8ac56" stroke-width="2" stroke-dasharray="5,2" d="M1582.91,-108C1582.91,-108 1546.91,-108 1546.91,-108 1540.91,-108 1534.91,-102 1534.91,-96 1534.91,-96 1534.91,-84 1534.91,-84 1534.91,-78 1540.91,-72 1546.91,-72 1546.91,-72 1582.91,-72 1582.91,-72 1588.91,-72 1594.91,-78 1594.91,-84 1594.91,-84 1594.91,-96 1594.91,-96 1594.91,-102 1588.91,-108 1582.91,-108"/>
<text text-anchor="middle" x="1564.91" y="-87.5" font-family="sans" font-size="10.00">calc_stat</text>
</g>
<!-- 10&#45;&gt;0 -->
<g id="edge10" class="edge">
<title>10&#45;&gt;0</title>
<path fill="none" stroke="grey" stroke-width="2" d="M1534.76,-79.41C1525.01,-76.63 1514.08,-73.85 1503.91,-72 1293.05,-33.66 1035.32,-22.75 940.35,-19.91"/>
<polygon fill="grey" stroke="grey" stroke-width="2" points="940.2,-16.41 930.11,-19.62 940,-23.41 940.2,-16.41"/>
</g>
<!-- 11 -->
<g id="node12" class="node">
<title>11</title>
<path fill="none" stroke="#56a9d8" stroke-width="2" stroke-dasharray="5,2" d="M147.91,-108C147.91,-108 117.91,-108 117.91,-108 111.91,-108 105.91,-102 105.91,-96 105.91,-96 105.91,-84 105.91,-84 105.91,-78 111.91,-72 117.91,-72 117.91,-72 147.91,-72 147.91,-72 153.91,-72 159.91,-78 159.91,-84 159.91,-84 159.91,-96 159.91,-96 159.91,-102 153.91,-108 147.91,-108"/>
<text text-anchor="middle" x="132.91" y="-87.5" font-family="sans" font-size="10.00">gsea</text>
</g>
<!-- 11&#45;&gt;0 -->
<g id="edge11" class="edge">
<title>11&#45;&gt;0</title>
<path fill="none" stroke="grey" stroke-width="2" d="M159.98,-80.88C171.82,-77.62 185.95,-74.14 198.91,-72 451.45,-30.31 760.44,-21.37 865.74,-19.49"/>
<polygon fill="grey" stroke="grey" stroke-width="2" points="865.91,-22.99 875.85,-19.32 865.8,-15.99 865.91,-22.99"/>
</g>
<!-- 12 -->
<g id="node13" class="node">
<title>12</title>
<path fill="none" stroke="#56a9d8" stroke-width="2" stroke-dasharray="5,2" d="M327.91,-108C327.91,-108 297.91,-108 297.91,-108 291.91,-108 285.91,-102 285.91,-96 285.91,-96 285.91,-84 285.91,-84 285.91,-78 291.91,-72 297.91,-72 297.91,-72 327.91,-72 327.91,-72 333.91,-72 339.91,-78 339.91,-84 339.91,-84 339.91,-96 339.91,-96 339.91,-102 333.91,-108 327.91,-108"/>
<text text-anchor="middle" x="312.91" y="-87.5" font-family="sans" font-size="10.00">gsea</text>
</g>
<!-- 12&#45;&gt;0 -->
<g id="edge12" class="edge">
<title>12&#45;&gt;0</title>
<path fill="none" stroke="grey" stroke-width="2" d="M340,-81.04C351.86,-77.81 365.98,-74.31 378.91,-72 559.73,-39.76 779.41,-25.48 865.63,-20.83"/>
<polygon fill="grey" stroke="grey" stroke-width="2" points="865.91,-24.32 875.72,-20.3 865.54,-17.33 865.91,-24.32"/>
</g>
<!-- 13 -->
<g id="node14" class="node">
<title>13</title>
<path fill="none" stroke="#56a9d8" stroke-width="2" stroke-dasharray="5,2" d="M507.91,-108C507.91,-108 477.91,-108 477.91,-108 471.91,-108 465.91,-102 465.91,-96 465.91,-96 465.91,-84 465.91,-84 465.91,-78 471.91,-72 477.91,-72 477.91,-72 507.91,-72 507.91,-72 513.91,-72 519.91,-78 519.91,-84 519.91,-84 519.91,-96 519.91,-96 519.91,-102 513.91,-108 507.91,-108"/>
<text text-anchor="middle" x="492.91" y="-87.5" font-family="sans" font-size="10.00">gsea</text>
</g>
<!-- 13&#45;&gt;0 -->
<g id="edge13" class="edge">
<title>13&#45;&gt;0</title>
<path fill="none" stroke="grey" stroke-width="2" d="M520.07,-81.36C531.93,-78.19 546.05,-74.64 558.91,-72 669.65,-49.27 802.25,-31.45 865.62,-23.51"/>
<polygon fill="grey" stroke="grey" stroke-width="2" points="866.05,-26.99 875.55,-22.28 865.19,-20.04 866.05,-26.99"/>
</g>
<!-- 14 -->
<g id="node15" class="node">
<title>14</title>
<path fill="none" stroke="#56a9d8" stroke-width="2" stroke-dasharray="5,2" d="M687.91,-108C687.91,-108 657.91,-108 657.91,-108 651.91,-108 645.91,-102 645.91,-96 645.91,-96 645.91,-84 645.91,-84 645.91,-78 651.91,-72 657.91,-72 657.91,-72 687.91,-72 687.91,-72 693.91,-72 699.91,-78 699.91,-84 699.91,-84 699.91,-96 699.91,-96 699.91,-102 693.91,-108 687.91,-108"/>
<text text-anchor="middle" x="672.91" y="-87.5" font-family="sans" font-size="10.00">gsea</text>
</g>
<!-- 14&#45;&gt;0 -->
<g id="edge14" class="edge">
<title>14&#45;&gt;0</title>
<path fill="none" stroke="grey" stroke-width="2" d="M700.08,-77.2C704.67,-75.37 709.4,-73.56 713.91,-72 765.94,-53.99 827.58,-37.6 865.97,-27.96"/>
<polygon fill="grey" stroke="grey" stroke-width="2" points="866.82,-31.36 875.68,-25.54 865.13,-24.57 866.82,-31.36"/>
</g>
<!-- 15 -->
<g id="node16" class="node">
<title>15</title>
<path fill="none" stroke="#56a9d8" stroke-width="2" stroke-dasharray="5,2" d="M842.91,-108C842.91,-108 812.91,-108 812.91,-108 806.91,-108 800.91,-102 800.91,-96 800.91,-96 800.91,-84 800.91,-84 800.91,-78 806.91,-72 812.91,-72 812.91,-72 842.91,-72 842.91,-72 848.91,-72 854.91,-78 854.91,-84 854.91,-84 854.91,-96 854.91,-96 854.91,-102 848.91,-108 842.91,-108"/>
<text text-anchor="middle" x="827.91" y="-87.5" font-family="sans" font-size="10.00">gsea</text>
</g>
<!-- 15&#45;&gt;0 -->
<g id="edge15" class="edge">
<title>15&#45;&gt;0</title>
<path fill="none" stroke="grey" stroke-width="2" d="M846.45,-71.7C855.72,-63.05 867.07,-52.45 877.17,-43.03"/>
<polygon fill="grey" stroke="grey" stroke-width="2" points="879.66,-45.49 884.59,-36.1 874.89,-40.37 879.66,-45.49"/>
</g>
<!-- 16 -->
<g id="node17" class="node">
<title>16</title>
<path fill="none" stroke="#56a9d8" stroke-width="2" stroke-dasharray="5,2" d="M992.91,-108C992.91,-108 962.91,-108 962.91,-108 956.91,-108 950.91,-102 950.91,-96 950.91,-96 950.91,-84 950.91,-84 950.91,-78 956.91,-72 962.91,-72 962.91,-72 992.91,-72 992.91,-72 998.91,-72 1004.91,-78 1004.91,-84 1004.91,-84 1004.91,-96 1004.91,-96 1004.91,-102 998.91,-108 992.91,-108"/>
<text text-anchor="middle" x="977.91" y="-87.5" font-family="sans" font-size="10.00">gsea</text>
</g>
<!-- 16&#45;&gt;0 -->
<g id="edge16" class="edge">
<title>16&#45;&gt;0</title>
<path fill="none" stroke="grey" stroke-width="2" d="M959.37,-71.7C950.11,-63.05 938.75,-52.45 928.66,-43.03"/>
<polygon fill="grey" stroke="grey" stroke-width="2" points="930.94,-40.37 921.24,-36.1 926.16,-45.49 930.94,-40.37"/>
</g>
<!-- 17 -->
<g id="node18" class="node">
<title>17</title>
<path fill="none" stroke="#56a9d8" stroke-width="2" stroke-dasharray="5,2" d="M1142.91,-108C1142.91,-108 1112.91,-108 1112.91,-108 1106.91,-108 1100.91,-102 1100.91,-96 1100.91,-96 1100.91,-84 1100.91,-84 1100.91,-78 1106.91,-72 1112.91,-72 1112.91,-72 1142.91,-72 1142.91,-72 1148.91,-72 1154.91,-78 1154.91,-84 1154.91,-84 1154.91,-96 1154.91,-96 1154.91,-102 1148.91,-108 1142.91,-108"/>
<text text-anchor="middle" x="1127.91" y="-87.5" font-family="sans" font-size="10.00">gsea</text>
</g>
<!-- 17&#45;&gt;0 -->
<g id="edge17" class="edge">
<title>17&#45;&gt;0</title>
<path fill="none" stroke="grey" stroke-width="2" d="M1100.6,-75.52C1097.7,-74.26 1094.76,-73.06 1091.91,-72 1040.19,-52.69 978.23,-36.59 939.71,-27.38"/>
<polygon fill="grey" stroke="grey" stroke-width="2" points="940.51,-23.97 929.97,-25.07 938.9,-30.78 940.51,-23.97"/>
</g>
<!-- 18 -->
<g id="node19" class="node">
<title>18</title>
<path fill="none" stroke="#56a9d8" stroke-width="2" stroke-dasharray="5,2" d="M1310.91,-108C1310.91,-108 1280.91,-108 1280.91,-108 1274.91,-108 1268.91,-102 1268.91,-96 1268.91,-96 1268.91,-84 1268.91,-84 1268.91,-78 1274.91,-72 1280.91,-72 1280.91,-72 1310.91,-72 1310.91,-72 1316.91,-72 1322.91,-78 1322.91,-84 1322.91,-84 1322.91,-96 1322.91,-96 1322.91,-102 1316.91,-108 1310.91,-108"/>
<text text-anchor="middle" x="1295.91" y="-87.5" font-family="sans" font-size="10.00">gsea</text>
</g>
<!-- 18&#45;&gt;0 -->
<g id="edge18" class="edge">
<title>18&#45;&gt;0</title>
<path fill="none" stroke="grey" stroke-width="2" d="M1268.73,-75.15C1265.8,-73.96 1262.82,-72.88 1259.91,-72 1146.59,-37.65 1006.03,-25.13 940.21,-20.93"/>
<polygon fill="grey" stroke="grey" stroke-width="2" points="940.12,-17.42 929.92,-20.31 939.69,-24.41 940.12,-17.42"/>
</g>
<!-- 19 -->
<g id="node20" class="node">
<title>19</title>
<path fill="none" stroke="#56a9d8" stroke-width="2" stroke-dasharray="5,2" d="M1482.91,-108C1482.91,-108 1452.91,-108 1452.91,-108 1446.91,-108 1440.91,-102 1440.91,-96 1440.91,-96 1440.91,-84 1440.91,-84 1440.91,-78 1446.91,-72 1452.91,-72 1452.91,-72 1482.91,-72 1482.91,-72 1488.91,-72 1494.91,-78 1494.91,-84 1494.91,-84 1494.91,-96 1494.91,-96 1494.91,-102 1488.91,-108 1482.91,-108"/>
<text text-anchor="middle" x="1467.91" y="-87.5" font-family="sans" font-size="10.00">gsea</text>
</g>
<!-- 19&#45;&gt;0 -->
<g id="edge19" class="edge">
<title>19&#45;&gt;0</title>
<path fill="none" stroke="grey" stroke-width="2" d="M1440.77,-75.01C1437.83,-73.85 1434.84,-72.81 1431.91,-72 1252.61,-22.28 1027.66,-18 940.14,-18.43"/>
<polygon fill="grey" stroke="grey" stroke-width="2" points="939.9,-14.93 929.92,-18.5 939.95,-21.93 939.9,-14.93"/>
</g>
<!-- 20 -->
<g id="node21" class="node">
<title>20</title>
<path fill="none" stroke="#56a9d8" stroke-width="2" stroke-dasharray="5,2" d="M1654.91,-108C1654.91,-108 1624.91,-108 1624.91,-108 1618.91,-108 1612.91,-102 1612.91,-96 1612.91,-96 1612.91,-84 1612.91,-84 1612.91,-78 1618.91,-72 1624.91,-72 1624.91,-72 1654.91,-72 1654.91,-72 1660.91,-72 1666.91,-78 1666.91,-84 1666.91,-84 1666.91,-96 1666.91,-96 1666.91,-102 1660.91,-108 1654.91,-108"/>
<text text-anchor="middle" x="1639.91" y="-87.5" font-family="sans" font-size="10.00">gsea</text>
</g>
<!-- 20&#45;&gt;0 -->
<g id="edge20" class="edge">
<title>20&#45;&gt;0</title>
<path fill="none" stroke="grey" stroke-width="2" d="M1612.79,-74.93C1609.85,-73.79 1606.85,-72.78 1603.91,-72 1476.79,-38.41 1067.05,-23.82 940.5,-20.04"/>
<polygon fill="grey" stroke="grey" stroke-width="2" points="940.27,-16.53 930.17,-19.74 940.07,-23.53 940.27,-16.53"/>
</g>
<!-- 21 -->
<g id="node22" class="node">
<title>21</title>
<path fill="none" stroke="#56d8a9" stroke-width="2" stroke-dasharray="5,2" d="M1792.91,-182.5C1792.91,-182.5 1742.91,-182.5 1742.91,-182.5 1736.91,-182.5 1730.91,-176.5 1730.91,-170.5 1730.91,-170.5 1730.91,-158.5 1730.91,-158.5 1730.91,-152.5 1736.91,-146.5 1742.91,-146.5 1742.91,-146.5 1792.91,-146.5 1792.91,-146.5 1798.91,-146.5 1804.91,-152.5 1804.91,-158.5 1804.91,-158.5 1804.91,-170.5 1804.91,-170.5 1804.91,-176.5 1798.91,-182.5 1792.91,-182.5"/>
<text text-anchor="middle" x="1767.91" y="-162" font-family="sans" font-size="10.00">plot_graphs</text>
</g>
<!-- 21&#45;&gt;0 -->
<g id="edge21" class="edge">
<title>21&#45;&gt;0</title>
<path fill="none" stroke="grey" stroke-width="2" d="M1756.63,-146.33C1741.29,-124.64 1711.61,-88.18 1675.91,-72 1608.53,-41.46 1086.11,-24.27 940.49,-20.04"/>
<polygon fill="grey" stroke="grey" stroke-width="2" points="940.37,-16.53 930.27,-19.74 940.17,-23.53 940.37,-16.53"/>
</g>
<!-- 22 -->
<g id="node23" class="node">
<title>22</title>
<path fill="none" stroke="#d85656" stroke-width="2" stroke-dasharray="5,2" d="M901.41,-257C901.41,-257 860.41,-257 860.41,-257 854.41,-257 848.41,-251 848.41,-245 848.41,-245 848.41,-233 848.41,-233 848.41,-227 854.41,-221 860.41,-221 860.41,-221 901.41,-221 901.41,-221 907.41,-221 913.41,-227 913.41,-233 913.41,-233 913.41,-245 913.41,-245 913.41,-251 907.41,-257 901.41,-257"/>
<text text-anchor="middle" x="880.91" y="-236.5" font-family="sans" font-size="10.00">load_data</text>
</g>
<!-- 22&#45;&gt;1 -->
<g id="edge22" class="edge">
<title>22&#45;&gt;1</title>
<path fill="none" stroke="grey" stroke-width="2" d="M848.2,-237.26C693,-233.57 37.26,-216.19 7.91,-185 -11.16,-164.74 9.48,-135.81 29.73,-115.41"/>
<polygon fill="grey" stroke="grey" stroke-width="2" points="32.32,-117.77 37.1,-108.31 27.47,-112.73 32.32,-117.77"/>
</g>
<!-- 22&#45;&gt;2 -->
<g id="edge24" class="edge">
<title>22&#45;&gt;2</title>
<path fill="none" stroke="grey" stroke-width="2" d="M848.13,-238.04C716.76,-237.87 233.22,-233.9 187.91,-185 169,-164.59 189.61,-135.69 209.81,-115.33"/>
<polygon fill="grey" stroke="grey" stroke-width="2" points="212.39,-117.71 217.16,-108.25 207.53,-112.67 212.39,-117.71"/>
</g>
<!-- 22&#45;&gt;3 -->
<g id="edge26" class="edge">
<title>22&#45;&gt;3</title>
<path fill="none" stroke="grey" stroke-width="2" d="M848.13,-237.11C740.08,-233.83 400.15,-220.74 367.91,-185 349.28,-164.34 369.84,-135.48 389.95,-115.2"/>
<polygon fill="grey" stroke="grey" stroke-width="2" points="392.49,-117.61 397.26,-108.15 387.64,-112.57 392.49,-117.61"/>
</g>
<!-- 22&#45;&gt;4 -->
<g id="edge28" class="edge">
<title>22&#45;&gt;4</title>
<path fill="none" stroke="grey" stroke-width="2" d="M848.4,-237.93C772.35,-237.01 586.39,-230.09 547.91,-185 529.96,-163.96 550.07,-135.41 569.89,-115.31"/>
<polygon fill="grey" stroke="grey" stroke-width="2" points="572.36,-117.79 577.1,-108.31 567.49,-112.76 572.36,-117.79"/>
</g>
<!-- 22&#45;&gt;5 -->
<g id="edge30" class="edge">
<title>22&#45;&gt;5</title>
<path fill="none" stroke="grey" stroke-width="2" d="M848.17,-237.1C811.95,-234.15 755.14,-223.24 727.91,-185 713.56,-164.84 723.83,-136.95 735.24,-116.8"/>
<polygon fill="grey" stroke="grey" stroke-width="2" points="738.3,-118.5 740.48,-108.13 732.31,-114.88 738.3,-118.5"/>
</g>
<!-- 22&#45;&gt;6 -->
<g id="edge32" class="edge">
<title>22&#45;&gt;6</title>
<path fill="none" stroke="grey" stroke-width="2" d="M883.48,-220.85C887.25,-195.62 894.34,-148.26 898.84,-118.24"/>
<polygon fill="grey" stroke="grey" stroke-width="2" points="902.34,-118.45 900.36,-108.04 895.42,-117.41 902.34,-118.45"/>
</g>
<!-- 22&#45;&gt;7 -->
<g id="edge34" class="edge">
<title>22&#45;&gt;7</title>
<path fill="none" stroke="grey" stroke-width="2" d="M913.57,-232.27C942.95,-225.57 985.57,-211.79 1012.91,-185 1031.45,-166.84 1041.86,-138.74 1047.38,-117.99"/>
<polygon fill="grey" stroke="grey" stroke-width="2" points="1050.8,-118.73 1049.78,-108.19 1044,-117.07 1050.8,-118.73"/>
</g>
<!-- 22&#45;&gt;8 -->
<g id="edge36" class="edge">
<title>22&#45;&gt;8</title>
<path fill="none" stroke="grey" stroke-width="2" d="M913.56,-236.31C983.3,-232.08 1143.81,-218.84 1184.91,-185 1204.88,-168.56 1213.79,-139.71 1217.76,-118.3"/>
<polygon fill="grey" stroke="grey" stroke-width="2" points="1221.25,-118.6 1219.37,-108.18 1214.34,-117.5 1221.25,-118.6"/>
</g>
<!-- 22&#45;&gt;9 -->
<g id="edge38" class="edge">
<title>22&#45;&gt;9</title>
<path fill="none" stroke="grey" stroke-width="2" d="M913.52,-238.67C1009.5,-240.01 1288.6,-239.07 1357.91,-185 1378.44,-168.98 1386.93,-139.61 1390.44,-117.94"/>
<polygon fill="grey" stroke="grey" stroke-width="2" points="1393.91,-118.4 1391.79,-108.02 1386.97,-117.45 1393.91,-118.4"/>
</g>
<!-- 22&#45;&gt;10 -->
<g id="edge40" class="edge">
<title>22&#45;&gt;10</title>
<path fill="none" stroke="grey" stroke-width="2" d="M913.71,-237.36C1038.68,-234.64 1480.45,-222.44 1529.91,-185 1550.67,-169.28 1559.12,-139.86 1562.56,-118.1"/>
<polygon fill="grey" stroke="grey" stroke-width="2" points="1566.04,-118.5 1563.88,-108.13 1559.1,-117.58 1566.04,-118.5"/>
</g>
<!-- 22&#45;&gt;11 -->
<g id="edge42" class="edge">
<title>22&#45;&gt;11</title>
<path fill="none" stroke="grey" stroke-width="2" d="M848.16,-237.46C716.81,-235.02 232.65,-223.46 176.91,-185 154.74,-169.7 143.46,-140.2 137.91,-118.31"/>
<polygon fill="grey" stroke="grey" stroke-width="2" points="141.25,-117.25 135.62,-108.27 134.43,-118.8 141.25,-117.25"/>
</g>
<!-- 22&#45;&gt;12 -->
<g id="edge44" class="edge">
<title>22&#45;&gt;12</title>
<path fill="none" stroke="grey" stroke-width="2" d="M848.36,-236.56C740.15,-231.53 397.05,-213.47 356.91,-185 334.94,-169.41 323.62,-139.96 318.01,-118.16"/>
<polygon fill="grey" stroke="grey" stroke-width="2" points="321.36,-117.12 315.69,-108.17 314.54,-118.7 321.36,-117.12"/>
</g>
<!-- 22&#45;&gt;13 -->
<g id="edge46" class="edge">
<title>22&#45;&gt;13</title>
<path fill="none" stroke="grey" stroke-width="2" d="M848.37,-236.78C772.54,-233.34 586.83,-221.33 537.91,-185 516.32,-168.96 504.63,-139.85 498.62,-118.26"/>
<polygon fill="grey" stroke="grey" stroke-width="2" points="501.96,-117.18 496.11,-108.35 495.18,-118.9 501.96,-117.18"/>
</g>
<!-- 22&#45;&gt;14 -->
<g id="edge48" class="edge">
<title>22&#45;&gt;14</title>
<path fill="none" stroke="grey" stroke-width="2" d="M848.17,-235.14C812.06,-230.39 754.16,-217.86 716.91,-185 697.03,-167.46 685.47,-139.03 679.23,-118.02"/>
<polygon fill="grey" stroke="grey" stroke-width="2" points="682.53,-116.82 676.51,-108.1 675.78,-118.67 682.53,-116.82"/>
</g>
<!-- 22&#45;&gt;15 -->
<g id="edge50" class="edge">
<title>22&#45;&gt;15</title>
<path fill="none" stroke="grey" stroke-width="2" d="M874.73,-220.85C865.55,-195.4 848.26,-147.43 837.45,-117.46"/>
<polygon fill="grey" stroke="grey" stroke-width="2" points="840.74,-116.26 834.06,-108.04 834.16,-118.64 840.74,-116.26"/>
</g>
<!-- 22&#45;&gt;16 -->
<g id="edge52" class="edge">
<title>22&#45;&gt;16</title>
<path fill="none" stroke="grey" stroke-width="2" d="M913.5,-232.65C940.47,-226.32 977.13,-212.88 994.91,-185 1007.87,-164.69 1000.65,-137.17 991.98,-117.16"/>
<polygon fill="grey" stroke="grey" stroke-width="2" points="995.1,-115.57 987.69,-108 988.76,-118.54 995.1,-115.57"/>
</g>
<!-- 22&#45;&gt;17 -->
<g id="edge54" class="edge">
<title>22&#45;&gt;17</title>
<path fill="none" stroke="grey" stroke-width="2" d="M913.64,-236.98C981.73,-234.09 1134.98,-223.39 1166.91,-185 1183.69,-164.82 1167.87,-136.41 1151.63,-116.12"/>
<polygon fill="grey" stroke="grey" stroke-width="2" points="1154.1,-113.62 1144.98,-108.24 1148.75,-118.14 1154.1,-113.62"/>
</g>
<!-- 22&#45;&gt;18 -->
<g id="edge56" class="edge">
<title>22&#45;&gt;18</title>
<path fill="none" stroke="grey" stroke-width="2" d="M913.71,-236.68C1014.01,-232.33 1311.56,-216.81 1339.91,-185 1357.88,-164.84 1339.73,-136.07 1321.6,-115.68"/>
<polygon fill="grey" stroke="grey" stroke-width="2" points="1324.1,-113.24 1314.72,-108.31 1318.99,-118.01 1324.1,-113.24"/>
</g>
<!-- 22&#45;&gt;19 -->
<g id="edge58" class="edge">
<title>22&#45;&gt;19</title>
<path fill="none" stroke="grey" stroke-width="2" d="M913.67,-237.78C1037.36,-236.61 1471.13,-229.36 1511.91,-185 1530.3,-165.01 1511.78,-135.97 1493.44,-115.47"/>
<polygon fill="grey" stroke="grey" stroke-width="2" points="1495.89,-112.96 1486.49,-108.06 1490.78,-117.75 1495.89,-112.96"/>
</g>
<!-- 22&#45;&gt;20 -->
<g id="edge60" class="edge">
<title>22&#45;&gt;20</title>
<path fill="none" stroke="grey" stroke-width="2" d="M913.83,-238.41C1058.09,-239.85 1629.63,-241.92 1682.91,-185 1701.4,-165.25 1683.21,-136.17 1665.12,-115.59"/>
<polygon fill="grey" stroke="grey" stroke-width="2" points="1667.62,-113.14 1658.27,-108.16 1662.47,-117.88 1667.62,-113.14"/>
</g>
<!-- 22&#45;&gt;21 -->
<g id="edge62" class="edge">
<title>22&#45;&gt;21</title>
<path fill="none" stroke="grey" stroke-width="2" d="M913.8,-237.24C1048.64,-233.91 1559.53,-219.25 1716.91,-185 1718.19,-184.72 1719.48,-184.42 1720.77,-184.09"/>
<polygon fill="grey" stroke="grey" stroke-width="2" points="1722.08,-187.35 1730.71,-181.19 1720.13,-180.63 1722.08,-187.35"/>
</g>
<!-- 23 -->
<g id="node24" class="node">
<title>23</title>
<path fill="none" stroke="#afd856" stroke-width="2" stroke-dasharray="5,2" d="M90.91,-185C90.91,-185 28.91,-185 28.91,-185 22.91,-185 16.91,-179 16.91,-173 16.91,-173 16.91,-156 16.91,-156 16.91,-150 22.91,-144 28.91,-144 28.91,-144 90.91,-144 90.91,-144 96.91,-144 102.91,-150 102.91,-156 102.91,-156 102.91,-173 102.91,-173 102.91,-179 96.91,-185 90.91,-185"/>
<text text-anchor="middle" x="59.91" y="-173" font-family="sans" font-size="10.00">mix_markup</text>
<text text-anchor="middle" x="59.91" y="-162" font-family="sans" font-size="10.00">pair0: Healthy</text>
<text text-anchor="middle" x="59.91" y="-151" font-family="sans" font-size="10.00">pair1: HOIL</text>
</g>
<!-- 22&#45;&gt;23 -->
<g id="edge63" class="edge">
<title>22&#45;&gt;23</title>
<path fill="none" stroke="grey" stroke-width="2" d="M848.34,-236.87C721.46,-232.29 260.27,-213.98 116.91,-185 115.64,-184.74 114.36,-184.47 113.08,-184.17"/>
<polygon fill="grey" stroke="grey" stroke-width="2" points="113.72,-180.72 103.16,-181.59 111.96,-187.5 113.72,-180.72"/>
</g>
<!-- 24 -->
<g id="node25" class="node">
<title>24</title>
<path fill="none" stroke="#afd856" stroke-width="2" stroke-dasharray="5,2" d="M270.91,-185C270.91,-185 208.91,-185 208.91,-185 202.91,-185 196.91,-179 196.91,-173 196.91,-173 196.91,-156 196.91,-156 196.91,-150 202.91,-144 208.91,-144 208.91,-144 270.91,-144 270.91,-144 276.91,-144 282.91,-150 282.91,-156 282.91,-156 282.91,-173 282.91,-173 282.91,-179 276.91,-185 270.91,-185"/>
<text text-anchor="middle" x="239.91" y="-173" font-family="sans" font-size="10.00">mix_markup</text>
<text text-anchor="middle" x="239.91" y="-162" font-family="sans" font-size="10.00">pair0: Healthy</text>
<text text-anchor="middle" x="239.91" y="-151" font-family="sans" font-size="10.00">pair1: CINCA</text>
</g>
<!-- 22&#45;&gt;24 -->
<g id="edge64" class="edge">
<title>22&#45;&gt;24</title>
<path fill="none" stroke="grey" stroke-width="2" d="M848.22,-237.76C758.88,-236.51 503.52,-229.05 296.91,-185 295.65,-184.73 294.37,-184.44 293.09,-184.13"/>
<polygon fill="grey" stroke="grey" stroke-width="2" points="293.74,-180.69 283.18,-181.5 291.94,-187.45 293.74,-180.69"/>
</g>
<!-- 25 -->
<g id="node26" class="node">
<title>25</title>
<path fill="none" stroke="#afd856" stroke-width="2" stroke-dasharray="5,2" d="M450.91,-185C450.91,-185 388.91,-185 388.91,-185 382.91,-185 376.91,-179 376.91,-173 376.91,-173 376.91,-156 376.91,-156 376.91,-150 382.91,-144 388.91,-144 388.91,-144 450.91,-144 450.91,-144 456.91,-144 462.91,-150 462.91,-156 462.91,-156 462.91,-173 462.91,-173 462.91,-179 456.91,-185 450.91,-185"/>
<text text-anchor="middle" x="419.91" y="-173" font-family="sans" font-size="10.00">mix_markup</text>
<text text-anchor="middle" x="419.91" y="-162" font-family="sans" font-size="10.00">pair0: Healthy</text>
<text text-anchor="middle" x="419.91" y="-151" font-family="sans" font-size="10.00">pair1: MWS</text>
</g>
<!-- 22&#45;&gt;25 -->
<g id="edge65" class="edge">
<title>22&#45;&gt;25</title>
<path fill="none" stroke="grey" stroke-width="2" d="M848.31,-235.93C779.12,-231.07 612.77,-216.82 476.91,-185 475.65,-184.7 474.38,-184.39 473.1,-184.07"/>
<polygon fill="grey" stroke="grey" stroke-width="2" points="473.79,-180.63 463.22,-181.31 471.91,-187.37 473.79,-180.63"/>
</g>
<!-- 26 -->
<g id="node27" class="node">
<title>26</title>
<path fill="none" stroke="#afd856" stroke-width="2" stroke-dasharray="5,2" d="M630.91,-185C630.91,-185 568.91,-185 568.91,-185 562.91,-185 556.91,-179 556.91,-173 556.91,-173 556.91,-156 556.91,-156 556.91,-150 562.91,-144 568.91,-144 568.91,-144 630.91,-144 630.91,-144 636.91,-144 642.91,-150 642.91,-156 642.91,-156 642.91,-173 642.91,-173 642.91,-179 636.91,-185 630.91,-185"/>
<text text-anchor="middle" x="599.91" y="-173" font-family="sans" font-size="10.00">mix_markup</text>
<text text-anchor="middle" x="599.91" y="-162" font-family="sans" font-size="10.00">pair0: Healthy</text>
<text text-anchor="middle" x="599.91" y="-151" font-family="sans" font-size="10.00">pair1: MVK</text>
</g>
<!-- 22&#45;&gt;26 -->
<g id="edge66" class="edge">
<title>22&#45;&gt;26</title>
<path fill="none" stroke="grey" stroke-width="2" d="M848.38,-231.34C804.57,-222.14 724.3,-204.45 656.91,-185 655.5,-184.59 654.07,-184.17 652.63,-183.74"/>
<polygon fill="grey" stroke="grey" stroke-width="2" points="653.62,-180.38 643.03,-180.74 651.54,-187.06 653.62,-180.38"/>
</g>
<!-- 27 -->
<g id="node28" class="node">
<title>27</title>
<path fill="none" stroke="#afd856" stroke-width="2" stroke-dasharray="5,2" d="M802.91,-185C802.91,-185 748.91,-185 748.91,-185 742.91,-185 736.91,-179 736.91,-173 736.91,-173 736.91,-156 736.91,-156 736.91,-150 742.91,-144 748.91,-144 748.91,-144 802.91,-144 802.91,-144 808.91,-144 814.91,-150 814.91,-156 814.91,-156 814.91,-173 814.91,-173 814.91,-179 808.91,-185 802.91,-185"/>
<text text-anchor="middle" x="775.91" y="-173" font-family="sans" font-size="10.00">mix_markup</text>
<text text-anchor="middle" x="775.91" y="-162" font-family="sans" font-size="10.00">pair0: HOIL</text>
<text text-anchor="middle" x="775.91" y="-151" font-family="sans" font-size="10.00">pair1: CINCA</text>
</g>
<!-- 22&#45;&gt;27 -->
<g id="edge67" class="edge">
<title>22&#45;&gt;27</title>
<path fill="none" stroke="grey" stroke-width="2" d="M856.03,-220.82C843.17,-211.94 827.23,-200.93 812.95,-191.08"/>
<polygon fill="grey" stroke="grey" stroke-width="2" points="814.54,-187.92 804.33,-185.12 810.57,-193.68 814.54,-187.92"/>
</g>
<!-- 28 -->
<g id="node29" class="node">
<title>28</title>
<path fill="none" stroke="#afd856" stroke-width="2" stroke-dasharray="5,2" d="M974.41,-185C974.41,-185 921.41,-185 921.41,-185 915.41,-185 909.41,-179 909.41,-173 909.41,-173 909.41,-156 909.41,-156 909.41,-150 915.41,-144 921.41,-144 921.41,-144 974.41,-144 974.41,-144 980.41,-144 986.41,-150 986.41,-156 986.41,-156 986.41,-173 986.41,-173 986.41,-179 980.41,-185 974.41,-185"/>
<text text-anchor="middle" x="947.91" y="-173" font-family="sans" font-size="10.00">mix_markup</text>
<text text-anchor="middle" x="947.91" y="-162" font-family="sans" font-size="10.00">pair0: HOIL</text>
<text text-anchor="middle" x="947.91" y="-151" font-family="sans" font-size="10.00">pair1: MWS</text>
</g>
<!-- 22&#45;&gt;28 -->
<g id="edge68" class="edge">
<title>22&#45;&gt;28</title>
<path fill="none" stroke="grey" stroke-width="2" d="M896.79,-220.82C904.61,-212.36 914.21,-201.97 922.98,-192.48"/>
<polygon fill="grey" stroke="grey" stroke-width="2" points="925.56,-194.84 929.78,-185.12 920.42,-190.09 925.56,-194.84"/>
</g>
<!-- 29 -->
<g id="node30" class="node">
<title>29</title>
<path fill="none" stroke="#afd856" stroke-width="2" stroke-dasharray="5,2" d="M1146.41,-185C1146.41,-185 1093.41,-185 1093.41,-185 1087.41,-185 1081.41,-179 1081.41,-173 1081.41,-173 1081.41,-156 1081.41,-156 1081.41,-150 1087.41,-144 1093.41,-144 1093.41,-144 1146.41,-144 1146.41,-144 1152.41,-144 1158.41,-150 1158.41,-156 1158.41,-156 1158.41,-173 1158.41,-173 1158.41,-179 1152.41,-185 1146.41,-185"/>
<text text-anchor="middle" x="1119.91" y="-173" font-family="sans" font-size="10.00">mix_markup</text>
<text text-anchor="middle" x="1119.91" y="-162" font-family="sans" font-size="10.00">pair0: HOIL</text>
<text text-anchor="middle" x="1119.91" y="-151" font-family="sans" font-size="10.00">pair1: MVK</text>
</g>
<!-- 22&#45;&gt;29 -->
<g id="edge69" class="edge">
<title>22&#45;&gt;29</title>
<path fill="none" stroke="grey" stroke-width="2" d="M913.73,-229.45C951.07,-219.53 1013.76,-202.32 1066.91,-185 1068.51,-184.48 1070.14,-183.94 1071.78,-183.38"/>
<polygon fill="grey" stroke="grey" stroke-width="2" points="1072.94,-186.69 1081.24,-180.11 1070.65,-180.07 1072.94,-186.69"/>
</g>
<!-- 30 -->
<g id="node31" class="node">
<title>30</title>
<path fill="none" stroke="#afd856" stroke-width="2" stroke-dasharray="5,2" d="M1318.91,-185C1318.91,-185 1264.91,-185 1264.91,-185 1258.91,-185 1252.91,-179 1252.91,-173 1252.91,-173 1252.91,-156 1252.91,-156 1252.91,-150 1258.91,-144 1264.91,-144 1264.91,-144 1318.91,-144 1318.91,-144 1324.91,-144 1330.91,-150 1330.91,-156 1330.91,-156 1330.91,-173 1330.91,-173 1330.91,-179 1324.91,-185 1318.91,-185"/>
<text text-anchor="middle" x="1291.91" y="-173" font-family="sans" font-size="10.00">mix_markup</text>
<text text-anchor="middle" x="1291.91" y="-162" font-family="sans" font-size="10.00">pair0: CINCA</text>
<text text-anchor="middle" x="1291.91" y="-151" font-family="sans" font-size="10.00">pair1: MWS</text>
</g>
<!-- 22&#45;&gt;30 -->
<g id="edge70" class="edge">
<title>22&#45;&gt;30</title>
<path fill="none" stroke="grey" stroke-width="2" d="M913.44,-235.44C976.86,-229.95 1121.11,-215.05 1238.91,-185 1240.34,-184.64 1241.78,-184.25 1243.23,-183.84"/>
<polygon fill="grey" stroke="grey" stroke-width="2" points="1244.3,-187.17 1252.83,-180.9 1242.25,-180.48 1244.3,-187.17"/>
</g>
<!-- 31 -->
<g id="node32" class="node">
<title>31</title>
<path fill="none" stroke="#afd856" stroke-width="2" stroke-dasharray="5,2" d="M1490.91,-185C1490.91,-185 1436.91,-185 1436.91,-185 1430.91,-185 1424.91,-179 1424.91,-173 1424.91,-173 1424.91,-156 1424.91,-156 1424.91,-150 1430.91,-144 1436.91,-144 1436.91,-144 1490.91,-144 1490.91,-144 1496.91,-144 1502.91,-150 1502.91,-156 1502.91,-156 1502.91,-173 1502.91,-173 1502.91,-179 1496.91,-185 1490.91,-185"/>
<text text-anchor="middle" x="1463.91" y="-173" font-family="sans" font-size="10.00">mix_markup</text>
<text text-anchor="middle" x="1463.91" y="-162" font-family="sans" font-size="10.00">pair0: CINCA</text>
<text text-anchor="middle" x="1463.91" y="-151" font-family="sans" font-size="10.00">pair1: MVK</text>
</g>
<!-- 22&#45;&gt;31 -->
<g id="edge71" class="edge">
<title>22&#45;&gt;31</title>
<path fill="none" stroke="grey" stroke-width="2" d="M913.64,-237.59C997.44,-235.92 1226.17,-227.5 1410.91,-185 1412.35,-184.67 1413.79,-184.31 1415.25,-183.93"/>
<polygon fill="grey" stroke="grey" stroke-width="2" points="1416.27,-187.28 1424.89,-181.11 1414.31,-180.56 1416.27,-187.28"/>
</g>
<!-- 32 -->
<g id="node33" class="node">
<title>32</title>
<path fill="none" stroke="#afd856" stroke-width="2" stroke-dasharray="5,2" d="M1662.41,-185C1662.41,-185 1609.41,-185 1609.41,-185 1603.41,-185 1597.41,-179 1597.41,-173 1597.41,-173 1597.41,-156 1597.41,-156 1597.41,-150 1603.41,-144 1609.41,-144 1609.41,-144 1662.41,-144 1662.41,-144 1668.41,-144 1674.41,-150 1674.41,-156 1674.41,-156 1674.41,-173 1674.41,-173 1674.41,-179 1668.41,-185 1662.41,-185"/>
<text text-anchor="middle" x="1635.91" y="-173" font-family="sans" font-size="10.00">mix_markup</text>
<text text-anchor="middle" x="1635.91" y="-162" font-family="sans" font-size="10.00">pair0: MWS</text>
<text text-anchor="middle" x="1635.91" y="-151" font-family="sans" font-size="10.00">pair1: MVK</text>
</g>
<!-- 22&#45;&gt;32 -->
<g id="edge72" class="edge">
<title>22&#45;&gt;32</title>
<path fill="none" stroke="grey" stroke-width="2" d="M913.7,-236.73C1034.24,-231.87 1452.58,-213.32 1582.91,-185 1584.38,-184.68 1585.86,-184.33 1587.35,-183.95"/>
<polygon fill="grey" stroke="grey" stroke-width="2" points="1588.55,-187.25 1597.2,-181.13 1586.63,-180.52 1588.55,-187.25"/>
</g>
<!-- 23&#45;&gt;1 -->
<g id="edge23" class="edge">
<title>23&#45;&gt;1</title>
<path fill="none" stroke="grey" stroke-width="2" d="M59.37,-143.69C59.15,-135.91 58.9,-126.84 58.67,-118.45"/>
<polygon fill="grey" stroke="grey" stroke-width="2" points="62.16,-118.22 58.39,-108.32 55.17,-118.41 62.16,-118.22"/>
</g>
<!-- 23&#45;&gt;11 -->
<g id="edge43" class="edge">
<title>23&#45;&gt;11</title>
<path fill="none" stroke="grey" stroke-width="2" d="M79.86,-143.69C88.65,-134.96 99.07,-124.61 108.34,-115.4"/>
<polygon fill="grey" stroke="grey" stroke-width="2" points="110.84,-117.85 115.47,-108.32 105.91,-112.88 110.84,-117.85"/>
</g>
<!-- 24&#45;&gt;2 -->
<g id="edge25" class="edge">
<title>24&#45;&gt;2</title>
<path fill="none" stroke="grey" stroke-width="2" d="M239.37,-143.69C239.15,-135.91 238.9,-126.84 238.67,-118.45"/>
<polygon fill="grey" stroke="grey" stroke-width="2" points="242.16,-118.22 238.39,-108.32 235.17,-118.41 242.16,-118.22"/>
</g>
<!-- 24&#45;&gt;12 -->
<g id="edge45" class="edge">
<title>24&#45;&gt;12</title>
<path fill="none" stroke="grey" stroke-width="2" d="M259.86,-143.69C268.65,-134.96 279.07,-124.61 288.34,-115.4"/>
<polygon fill="grey" stroke="grey" stroke-width="2" points="290.84,-117.85 295.47,-108.32 285.91,-112.88 290.84,-117.85"/>
</g>
<!-- 25&#45;&gt;3 -->
<g id="edge27" class="edge">
<title>25&#45;&gt;3</title>
<path fill="none" stroke="grey" stroke-width="2" d="M419.37,-143.69C419.15,-135.91 418.9,-126.84 418.67,-118.45"/>
<polygon fill="grey" stroke="grey" stroke-width="2" points="422.16,-118.22 418.39,-108.32 415.17,-118.41 422.16,-118.22"/>
</g>
<!-- 25&#45;&gt;13 -->
<g id="edge47" class="edge">
<title>25&#45;&gt;13</title>
<path fill="none" stroke="grey" stroke-width="2" d="M439.86,-143.69C448.65,-134.96 459.07,-124.61 468.34,-115.4"/>
<polygon fill="grey" stroke="grey" stroke-width="2" points="470.84,-117.85 475.47,-108.32 465.91,-112.88 470.84,-117.85"/>
</g>
<!-- 26&#45;&gt;4 -->
<g id="edge29" class="edge">
<title>26&#45;&gt;4</title>
<path fill="none" stroke="grey" stroke-width="2" d="M599.37,-143.69C599.15,-135.91 598.9,-126.84 598.67,-118.45"/>
<polygon fill="grey" stroke="grey" stroke-width="2" points="602.16,-118.22 598.39,-108.32 595.17,-118.41 602.16,-118.22"/>
</g>
<!-- 26&#45;&gt;14 -->
<g id="edge49" class="edge">
<title>26&#45;&gt;14</title>
<path fill="none" stroke="grey" stroke-width="2" d="M619.86,-143.69C628.65,-134.96 639.07,-124.61 648.34,-115.4"/>
<polygon fill="grey" stroke="grey" stroke-width="2" points="650.84,-117.85 655.47,-108.32 645.91,-112.88 650.84,-117.85"/>
</g>
<!-- 27&#45;&gt;5 -->
<g id="edge31" class="edge">
<title>27&#45;&gt;5</title>
<path fill="none" stroke="grey" stroke-width="2" d="M769.63,-143.69C767.1,-135.73 764.16,-126.44 761.44,-117.89"/>
<polygon fill="grey" stroke="grey" stroke-width="2" points="764.77,-116.79 758.41,-108.32 758.09,-118.91 764.77,-116.79"/>
</g>
<!-- 27&#45;&gt;15 -->
<g id="edge51" class="edge">
<title>27&#45;&gt;15</title>
<path fill="none" stroke="grey" stroke-width="2" d="M790.12,-143.69C796.14,-135.3 803.22,-125.42 809.62,-116.5"/>
<polygon fill="grey" stroke="grey" stroke-width="2" points="812.51,-118.49 815.49,-108.32 806.82,-114.41 812.51,-118.49"/>
</g>
<!-- 28&#45;&gt;6 -->
<g id="edge33" class="edge">
<title>28&#45;&gt;6</title>
<path fill="none" stroke="grey" stroke-width="2" d="M935.62,-143.69C930.52,-135.47 924.53,-125.83 919.08,-117.05"/>
<polygon fill="grey" stroke="grey" stroke-width="2" points="921.91,-114.97 913.66,-108.32 915.96,-118.66 921.91,-114.97"/>
</g>
<!-- 28&#45;&gt;16 -->
<g id="edge53" class="edge">
<title>28&#45;&gt;16</title>
<path fill="none" stroke="grey" stroke-width="2" d="M956.11,-143.69C959.44,-135.65 963.33,-126.24 966.9,-117.61"/>
<polygon fill="grey" stroke="grey" stroke-width="2" points="970.16,-118.9 970.75,-108.32 963.69,-116.22 970.16,-118.9"/>
</g>
<!-- 29&#45;&gt;7 -->
<g id="edge35" class="edge">
<title>29&#45;&gt;7</title>
<path fill="none" stroke="grey" stroke-width="2" d="M1101.6,-143.69C1093.61,-135.04 1084.16,-124.81 1075.72,-115.68"/>
<polygon fill="grey" stroke="grey" stroke-width="2" points="1078.28,-113.29 1068.92,-108.32 1073.13,-118.04 1078.28,-113.29"/>
</g>
<!-- 29&#45;&gt;17 -->
<g id="edge55" class="edge">
<title>29&#45;&gt;17</title>
<path fill="none" stroke="grey" stroke-width="2" d="M1122.1,-143.69C1122.96,-135.91 1123.96,-126.84 1124.88,-118.45"/>
<polygon fill="grey" stroke="grey" stroke-width="2" points="1128.38,-118.64 1126,-108.32 1121.43,-117.88 1128.38,-118.64"/>
</g>
<!-- 30&#45;&gt;8 -->
<g id="edge37" class="edge">
<title>30&#45;&gt;8</title>
<path fill="none" stroke="grey" stroke-width="2" d="M1272.51,-143.69C1264.04,-135.04 1254.02,-124.81 1245.08,-115.68"/>
<polygon fill="grey" stroke="grey" stroke-width="2" points="1247.37,-113.02 1237.87,-108.32 1242.37,-117.91 1247.37,-113.02"/>
</g>
<!-- 30&#45;&gt;18 -->
<g id="edge57" class="edge">
<title>30&#45;&gt;18</title>
<path fill="none" stroke="grey" stroke-width="2" d="M1293.01,-143.69C1293.44,-135.91 1293.94,-126.84 1294.4,-118.45"/>
<polygon fill="grey" stroke="grey" stroke-width="2" points="1297.9,-118.5 1294.96,-108.32 1290.91,-118.11 1297.9,-118.5"/>
</g>
<!-- 31&#45;&gt;9 -->
<g id="edge39" class="edge">
<title>31&#45;&gt;9</title>
<path fill="none" stroke="grey" stroke-width="2" d="M1444.51,-143.69C1436.04,-135.04 1426.02,-124.81 1417.08,-115.68"/>
<polygon fill="grey" stroke="grey" stroke-width="2" points="1419.37,-113.02 1409.87,-108.32 1414.37,-117.91 1419.37,-113.02"/>
</g>
<!-- 31&#45;&gt;19 -->
<g id="edge59" class="edge">
<title>31&#45;&gt;19</title>
<path fill="none" stroke="grey" stroke-width="2" d="M1465.01,-143.69C1465.44,-135.91 1465.94,-126.84 1466.4,-118.45"/>
<polygon fill="grey" stroke="grey" stroke-width="2" points="1469.9,-118.5 1466.96,-108.32 1462.91,-118.11 1469.9,-118.5"/>
</g>
<!-- 32&#45;&gt;10 -->
<g id="edge41" class="edge">
<title>32&#45;&gt;10</title>
<path fill="none" stroke="grey" stroke-width="2" d="M1616.51,-143.69C1608.04,-135.04 1598.02,-124.81 1589.08,-115.68"/>
<polygon fill="grey" stroke="grey" stroke-width="2" points="1591.37,-113.02 1581.87,-108.32 1586.37,-117.91 1591.37,-113.02"/>
</g>
<!-- 32&#45;&gt;20 -->
<g id="edge61" class="edge">
<title>32&#45;&gt;20</title>
<path fill="none" stroke="grey" stroke-width="2" d="M1637.01,-143.69C1637.44,-135.91 1637.94,-126.84 1638.4,-118.45"/>
<polygon fill="grey" stroke="grey" stroke-width="2" points="1641.9,-118.5 1638.96,-108.32 1634.91,-118.11 1641.9,-118.5"/>
</g>
</g>
</svg>
