<?xml version="1.0" encoding="UTF-8" standalone="no"?>
<!DOCTYPE svg PUBLIC "-//W3C//DTD SVG 1.1//EN"
 "http://www.w3.org/Graphics/SVG/1.1/DTD/svg11.dtd">
<!-- Generated by graphviz version 2.43.0 (0)
 -->
<!-- Title: snakemake_dag Pages: 1 -->
<svg width="1056pt" height="193pt"
 viewBox="0.00 0.00 1056.00 193.00" xmlns="http://www.w3.org/2000/svg" xmlns:xlink="http://www.w3.org/1999/xlink">
<g id="graph0" class="graph" transform="scale(1 1) rotate(0) translate(4 189)">
<title>snakemake_dag</title>
<polygon fill="white" stroke="transparent" points="-4,4 -4,-189 1052,-189 1052,4 -4,4"/>
<!-- 0 -->
<g id="node1" class="node">
<title>0</title>
<path fill="none" stroke="#56d8a9" stroke-width="2" stroke-dasharray="5,2" d="M563,-36C563,-36 533,-36 533,-36 527,-36 521,-30 521,-24 521,-24 521,-12 521,-12 521,-6 527,0 533,0 533,0 563,0 563,0 569,0 575,-6 575,-12 575,-12 575,-24 575,-24 575,-30 569,-36 563,-36"/>
<text text-anchor="middle" x="548" y="-15.5" font-family="sans" font-size="10.00">all</text>
</g>
<!-- 1 -->
<g id="node2" class="node">
<title>1</title>
<path fill="none" stroke="#afd856" stroke-width="2" stroke-dasharray="5,2" d="M74,-113C74,-113 12,-113 12,-113 6,-113 0,-107 0,-101 0,-101 0,-84 0,-84 0,-78 6,-72 12,-72 12,-72 74,-72 74,-72 80,-72 86,-78 86,-84 86,-84 86,-101 86,-101 86,-107 80,-113 74,-113"/>
<text text-anchor="middle" x="43" y="-101" font-family="sans" font-size="10.00">calc_stat</text>
<text text-anchor="middle" x="43" y="-90" font-family="sans" font-size="10.00">pair0: Healthy</text>
<text text-anchor="middle" x="43" y="-79" font-family="sans" font-size="10.00">pair1: HOIL</text>
</g>
<!-- 1&#45;&gt;0 -->
<g id="edge1" class="edge">
<title>1&#45;&gt;0</title>
<path fill="none" stroke="grey" stroke-width="2" d="M86.17,-74.42C89.13,-73.52 92.1,-72.7 95,-72 246.23,-35.37 432.2,-23.75 510.48,-20.32"/>
<polygon fill="grey" stroke="grey" stroke-width="2" points="510.95,-23.81 520.79,-19.89 510.66,-16.81 510.95,-23.81"/>
</g>
<!-- 2 -->
<g id="node3" class="node">
<title>2</title>
<path fill="none" stroke="#afd856" stroke-width="2" stroke-dasharray="5,2" d="M178,-113C178,-113 116,-113 116,-113 110,-113 104,-107 104,-101 104,-101 104,-84 104,-84 104,-78 110,-72 116,-72 116,-72 178,-72 178,-72 184,-72 190,-78 190,-84 190,-84 190,-101 190,-101 190,-107 184,-113 178,-113"/>
<text text-anchor="middle" x="147" y="-101" font-family="sans" font-size="10.00">calc_stat</text>
<text text-anchor="middle" x="147" y="-90" font-family="sans" font-size="10.00">pair0: Healthy</text>
<text text-anchor="middle" x="147" y="-79" font-family="sans" font-size="10.00">pair1: CINCA</text>
</g>
<!-- 2&#45;&gt;0 -->
<g id="edge2" class="edge">
<title>2&#45;&gt;0</title>
<path fill="none" stroke="grey" stroke-width="2" d="M190.19,-74.53C193.15,-73.61 196.11,-72.75 199,-72 310.52,-42.96 446.5,-27.99 510.84,-22.08"/>
<polygon fill="grey" stroke="grey" stroke-width="2" points="511.26,-25.56 520.91,-21.18 510.63,-18.59 511.26,-25.56"/>
</g>
<!-- 3 -->
<g id="node4" class="node">
<title>3</title>
<path fill="none" stroke="#afd856" stroke-width="2" stroke-dasharray="5,2" d="M282,-113C282,-113 220,-113 220,-113 214,-113 208,-107 208,-101 208,-101 208,-84 208,-84 208,-78 214,-72 220,-72 220,-72 282,-72 282,-72 288,-72 294,-78 294,-84 294,-84 294,-101 294,-101 294,-107 288,-113 282,-113"/>
<text text-anchor="middle" x="251" y="-101" font-family="sans" font-size="10.00">calc_stat</text>
<text text-anchor="middle" x="251" y="-90" font-family="sans" font-size="10.00">pair0: Healthy</text>
<text text-anchor="middle" x="251" y="-79" font-family="sans" font-size="10.00">pair1: MWS</text>
</g>
<!-- 3&#45;&gt;0 -->
<g id="edge3" class="edge">
<title>3&#45;&gt;0</title>
<path fill="none" stroke="grey" stroke-width="2" d="M294.25,-74.74C297.2,-73.77 300.13,-72.84 303,-72 375.54,-50.67 462.48,-33.88 510.85,-25.29"/>
<polygon fill="grey" stroke="grey" stroke-width="2" points="511.61,-28.71 520.85,-23.54 510.4,-21.82 511.61,-28.71"/>
</g>
<!-- 4 -->
<g id="node5" class="node">
<title>4</title>
<path fill="none" stroke="#afd856" stroke-width="2" stroke-dasharray="5,2" d="M386,-113C386,-113 324,-113 324,-113 318,-113 312,-107 312,-101 312,-101 312,-84 312,-84 312,-78 318,-72 324,-72 324,-72 386,-72 386,-72 392,-72 398,-78 398,-84 398,-84 398,-101 398,-101 398,-107 392,-113 386,-113"/>
<text text-anchor="middle" x="355" y="-101" font-family="sans" font-size="10.00">calc_stat</text>
<text text-anchor="middle" x="355" y="-90" font-family="sans" font-size="10.00">pair0: Healthy</text>
<text text-anchor="middle" x="355" y="-79" font-family="sans" font-size="10.00">pair1: MVK</text>
</g>
<!-- 4&#45;&gt;0 -->
<g id="edge4" class="edge">
<title>4&#45;&gt;0</title>
<path fill="none" stroke="grey" stroke-width="2" d="M398.31,-75.23C432.36,-62.44 479.24,-44.83 511.42,-32.74"/>
<polygon fill="grey" stroke="grey" stroke-width="2" points="512.77,-35.97 520.9,-29.18 510.31,-29.42 512.77,-35.97"/>
</g>
<!-- 5 -->
<g id="node6" class="node">
<title>5</title>
<path fill="none" stroke="#afd856" stroke-width="2" stroke-dasharray="5,2" d="M482,-113C482,-113 428,-113 428,-113 422,-113 416,-107 416,-101 416,-101 416,-84 416,-84 416,-78 422,-72 428,-72 428,-72 482,-72 482,-72 488,-72 494,-78 494,-84 494,-84 494,-101 494,-101 494,-107 488,-113 482,-113"/>
<text text-anchor="middle" x="455" y="-101" font-family="sans" font-size="10.00">calc_stat</text>
<text text-anchor="middle" x="455" y="-90" font-family="sans" font-size="10.00">pair0: HOIL</text>
<text text-anchor="middle" x="455" y="-79" font-family="sans" font-size="10.00">pair1: CINCA</text>
</g>
<!-- 5&#45;&gt;0 -->
<g id="edge5" class="edge">
<title>5&#45;&gt;0</title>
<path fill="none" stroke="grey" stroke-width="2" d="M480.41,-71.69C492.04,-62.63 505.89,-51.83 518.02,-42.37"/>
<polygon fill="grey" stroke="grey" stroke-width="2" points="520.36,-44.99 526.09,-36.08 516.05,-39.47 520.36,-44.99"/>
</g>
<!-- 6 -->
<g id="node7" class="node">
<title>6</title>
<path fill="none" stroke="#afd856" stroke-width="2" stroke-dasharray="5,2" d="M572,-113C572,-113 524,-113 524,-113 518,-113 512,-107 512,-101 512,-101 512,-84 512,-84 512,-78 518,-72 524,-72 524,-72 572,-72 572,-72 578,-72 584,-78 584,-84 584,-84 584,-101 584,-101 584,-107 578,-113 572,-113"/>
<text text-anchor="middle" x="548" y="-101" font-family="sans" font-size="10.00">calc_stat</text>
<text text-anchor="middle" x="548" y="-90" font-family="sans" font-size="10.00">pair0: HOIL</text>
<text text-anchor="middle" x="548" y="-79" font-family="sans" font-size="10.00">pair1: MWS</text>
</g>
<!-- 6&#45;&gt;0 -->
<g id="edge6" class="edge">
<title>6&#45;&gt;0</title>
<path fill="none" stroke="grey" stroke-width="2" d="M548,-71.69C548,-63.91 548,-54.84 548,-46.45"/>
<polygon fill="grey" stroke="grey" stroke-width="2" points="551.5,-46.32 548,-36.32 544.5,-46.32 551.5,-46.32"/>
</g>
<!-- 7 -->
<g id="node8" class="node">
<title>7</title>
<path fill="none" stroke="#afd856" stroke-width="2" stroke-dasharray="5,2" d="M661.5,-113C661.5,-113 614.5,-113 614.5,-113 608.5,-113 602.5,-107 602.5,-101 602.5,-101 602.5,-84 602.5,-84 602.5,-78 608.5,-72 614.5,-72 614.5,-72 661.5,-72 661.5,-72 667.5,-72 673.5,-78 673.5,-84 673.5,-84 673.5,-101 673.5,-101 673.5,-107 667.5,-113 661.5,-113"/>
<text text-anchor="middle" x="638" y="-101" font-family="sans" font-size="10.00">calc_stat</text>
<text text-anchor="middle" x="638" y="-90" font-family="sans" font-size="10.00">pair0: HOIL</text>
<text text-anchor="middle" x="638" y="-79" font-family="sans" font-size="10.00">pair1: MVK</text>
</g>
<!-- 7&#45;&gt;0 -->
<g id="edge7" class="edge">
<title>7&#45;&gt;0</title>
<path fill="none" stroke="grey" stroke-width="2" d="M613.41,-71.69C602.16,-62.63 588.75,-51.83 577.01,-42.37"/>
<polygon fill="grey" stroke="grey" stroke-width="2" points="579.18,-39.63 569.2,-36.08 574.79,-45.08 579.18,-39.63"/>
</g>
<!-- 8 -->
<g id="node9" class="node">
<title>8</title>
<path fill="none" stroke="#afd856" stroke-width="2" stroke-dasharray="5,2" d="M758,-113C758,-113 704,-113 704,-113 698,-113 692,-107 692,-101 692,-101 692,-84 692,-84 692,-78 698,-72 704,-72 704,-72 758,-72 758,-72 764,-72 770,-78 770,-84 770,-84 770,-101 770,-101 770,-107 764,-113 758,-113"/>
<text text-anchor="middle" x="731" y="-101" font-family="sans" font-size="10.00">calc_stat</text>
<text text-anchor="middle" x="731" y="-90" font-family="sans" font-size="10.00">pair0: CINCA</text>
<text text-anchor="middle" x="731" y="-79" font-family="sans" font-size="10.00">pair1: MWS</text>
</g>
<!-- 8&#45;&gt;0 -->
<g id="edge8" class="edge">
<title>8&#45;&gt;0</title>
<path fill="none" stroke="grey" stroke-width="2" d="M691.98,-75.6C688.94,-74.38 685.92,-73.17 683,-72 649.78,-58.73 611.86,-43.87 584.69,-33.27"/>
<polygon fill="grey" stroke="grey" stroke-width="2" points="585.78,-29.94 575.19,-29.57 583.23,-36.46 585.78,-29.94"/>
</g>
<!-- 9 -->
<g id="node10" class="node">
<title>9</title>
<path fill="none" stroke="#afd856" stroke-width="2" stroke-dasharray="5,2" d="M854,-113C854,-113 800,-113 800,-113 794,-113 788,-107 788,-101 788,-101 788,-84 788,-84 788,-78 794,-72 800,-72 800,-72 854,-72 854,-72 860,-72 866,-78 866,-84 866,-84 866,-101 866,-101 866,-107 860,-113 854,-113"/>
<text text-anchor="middle" x="827" y="-101" font-family="sans" font-size="10.00">calc_stat</text>
<text text-anchor="middle" x="827" y="-90" font-family="sans" font-size="10.00">pair0: CINCA</text>
<text text-anchor="middle" x="827" y="-79" font-family="sans" font-size="10.00">pair1: MVK</text>
</g>
<!-- 9&#45;&gt;0 -->
<g id="edge9" class="edge">
<title>9&#45;&gt;0</title>
<path fill="none" stroke="grey" stroke-width="2" d="M787.89,-75.02C784.9,-73.94 781.92,-72.92 779,-72 711.84,-50.8 631.22,-34.26 585.16,-25.62"/>
<polygon fill="grey" stroke="grey" stroke-width="2" points="585.52,-22.13 575.05,-23.75 584.25,-29.01 585.52,-22.13"/>
</g>
<!-- 10 -->
<g id="node11" class="node">
<title>10</title>
<path fill="none" stroke="#afd856" stroke-width="2" stroke-dasharray="5,2" d="M944,-113C944,-113 896,-113 896,-113 890,-113 884,-107 884,-101 884,-101 884,-84 884,-84 884,-78 890,-72 896,-72 896,-72 944,-72 944,-72 950,-72 956,-78 956,-84 956,-84 956,-101 956,-101 956,-107 950,-113 944,-113"/>
<text text-anchor="middle" x="920" y="-101" font-family="sans" font-size="10.00">calc_stat</text>
<text text-anchor="middle" x="920" y="-90" font-family="sans" font-size="10.00">pair0: MWS</text>
<text text-anchor="middle" x="920" y="-79" font-family="sans" font-size="10.00">pair1: MVK</text>
</g>
<!-- 10&#45;&gt;0 -->
<g id="edge10" class="edge">
<title>10&#45;&gt;0</title>
<path fill="none" stroke="grey" stroke-width="2" d="M883.94,-74.96C880.95,-73.87 877.94,-72.86 875,-72 772.47,-41.98 646.57,-27.62 585.19,-22"/>
<polygon fill="grey" stroke="grey" stroke-width="2" points="585.48,-18.51 575.21,-21.11 584.86,-25.49 585.48,-18.51"/>
</g>
<!-- 11 -->
<g id="node12" class="node">
<title>11</title>
<path fill="none" stroke="#59d856" stroke-width="2" stroke-dasharray="5,2" d="M1036,-110.5C1036,-110.5 986,-110.5 986,-110.5 980,-110.5 974,-104.5 974,-98.5 974,-98.5 974,-86.5 974,-86.5 974,-80.5 980,-74.5 986,-74.5 986,-74.5 1036,-74.5 1036,-74.5 1042,-74.5 1048,-80.5 1048,-86.5 1048,-86.5 1048,-98.5 1048,-98.5 1048,-104.5 1042,-110.5 1036,-110.5"/>
<text text-anchor="middle" x="1011" y="-90" font-family="sans" font-size="10.00">plot_graphs</text>
</g>
<!-- 11&#45;&gt;0 -->
<g id="edge11" class="edge">
<title>11&#45;&gt;0</title>
<path fill="none" stroke="grey" stroke-width="2" d="M973.9,-74.76C970.92,-73.73 967.93,-72.79 965,-72 828.34,-35.11 659.39,-23.69 585.52,-20.33"/>
<polygon fill="grey" stroke="grey" stroke-width="2" points="585.47,-16.82 575.33,-19.89 585.17,-23.82 585.47,-16.82"/>
</g>
<!-- 12 -->
<g id="node13" class="node">
<title>12</title>
<path fill="none" stroke="#d8ac56" stroke-width="2" stroke-dasharray="5,2" d="M568.5,-185C568.5,-185 527.5,-185 527.5,-185 521.5,-185 515.5,-179 515.5,-173 515.5,-173 515.5,-161 515.5,-161 515.5,-155 521.5,-149 527.5,-149 527.5,-149 568.5,-149 568.5,-149 574.5,-149 580.5,-155 580.5,-161 580.5,-161 580.5,-173 580.5,-173 580.5,-179 574.5,-185 568.5,-185"/>
<text text-anchor="middle" x="548" y="-164.5" font-family="sans" font-size="10.00">load_data</text>
</g>
<!-- 12&#45;&gt;1 -->
<g id="edge12" class="edge">
<title>12&#45;&gt;1</title>
<path fill="none" stroke="grey" stroke-width="2" d="M515.4,-164.89C441.79,-161.81 257.27,-150.88 96.25,-113"/>
<polygon fill="grey" stroke="grey" stroke-width="2" points="96.71,-109.51 86.17,-110.58 95.07,-116.31 96.71,-109.51"/>
</g>
<!-- 12&#45;&gt;2 -->
<g id="edge13" class="edge">
<title>12&#45;&gt;2</title>
<path fill="none" stroke="grey" stroke-width="2" d="M515.31,-163.32C454.62,-157.86 320.49,-143.51 199.95,-112.98"/>
<polygon fill="grey" stroke="grey" stroke-width="2" points="200.75,-109.57 190.19,-110.47 199,-116.35 200.75,-109.57"/>
</g>
<!-- 12&#45;&gt;3 -->
<g id="edge14" class="edge">
<title>12&#45;&gt;3</title>
<path fill="none" stroke="grey" stroke-width="2" d="M515.12,-160.46C469.59,-152.45 384.7,-136.3 304.06,-113.12"/>
<polygon fill="grey" stroke="grey" stroke-width="2" points="304.83,-109.7 294.25,-110.26 302.87,-116.42 304.83,-109.7"/>
</g>
<!-- 12&#45;&gt;4 -->
<g id="edge15" class="edge">
<title>12&#45;&gt;4</title>
<path fill="none" stroke="grey" stroke-width="2" d="M515.26,-153.7C485.77,-142.62 441.9,-126.14 407.51,-113.22"/>
<polygon fill="grey" stroke="grey" stroke-width="2" points="408.67,-109.92 398.08,-109.68 406.21,-116.48 408.67,-109.92"/>
</g>
<!-- 12&#45;&gt;5 -->
<g id="edge16" class="edge">
<title>12&#45;&gt;5</title>
<path fill="none" stroke="grey" stroke-width="2" d="M525.96,-148.82C514.68,-140.03 500.72,-129.14 488.17,-119.36"/>
<polygon fill="grey" stroke="grey" stroke-width="2" points="490.21,-116.51 480.17,-113.12 485.9,-122.03 490.21,-116.51"/>
</g>
<!-- 12&#45;&gt;6 -->
<g id="edge17" class="edge">
<title>12&#45;&gt;6</title>
<path fill="none" stroke="grey" stroke-width="2" d="M548,-148.82C548,-141.2 548,-132 548,-123.32"/>
<polygon fill="grey" stroke="grey" stroke-width="2" points="551.5,-123.12 548,-113.12 544.5,-123.12 551.5,-123.12"/>
</g>
<!-- 12&#45;&gt;7 -->
<g id="edge18" class="edge">
<title>12&#45;&gt;7</title>
<path fill="none" stroke="grey" stroke-width="2" d="M569.33,-148.82C580.14,-140.11 593.5,-129.35 605.56,-119.64"/>
<polygon fill="grey" stroke="grey" stroke-width="2" points="608.05,-122.12 613.64,-113.12 603.66,-116.67 608.05,-122.12"/>
</g>
<!-- 12&#45;&gt;8 -->
<g id="edge19" class="edge">
<title>12&#45;&gt;8</title>
<path fill="none" stroke="grey" stroke-width="2" d="M580.5,-153.36C605.9,-143.46 642.3,-129.21 682.52,-113.17"/>
<polygon fill="grey" stroke="grey" stroke-width="2" points="683.99,-116.35 691.98,-109.4 681.4,-109.85 683.99,-116.35"/>
</g>
<!-- 12&#45;&gt;9 -->
<g id="edge20" class="edge">
<title>12&#45;&gt;9</title>
<path fill="none" stroke="grey" stroke-width="2" d="M580.58,-160.24C623.86,-152.21 702.74,-136.29 778.23,-113.01"/>
<polygon fill="grey" stroke="grey" stroke-width="2" points="779.4,-116.31 787.89,-109.98 777.31,-109.63 779.4,-116.31"/>
</g>
<!-- 12&#45;&gt;10 -->
<g id="edge21" class="edge">
<title>12&#45;&gt;10</title>
<path fill="none" stroke="grey" stroke-width="2" d="M580.62,-163.41C638.43,-158.25 762.56,-144.59 874.21,-112.86"/>
<polygon fill="grey" stroke="grey" stroke-width="2" points="875.31,-116.19 883.94,-110.04 873.36,-109.47 875.31,-116.19"/>
</g>
<!-- 12&#45;&gt;11 -->
<g id="edge22" class="edge">
<title>12&#45;&gt;11</title>
<path fill="none" stroke="grey" stroke-width="2" d="M580.76,-164.88C650.3,-161.87 817.58,-151.2 963.85,-112.92"/>
<polygon fill="grey" stroke="grey" stroke-width="2" points="965.14,-116.2 973.9,-110.24 963.33,-109.44 965.14,-116.2"/>
</g>
</g>
</svg>
